<svg width="612" height="408" version="1.1" xmlns="http://www.w3.org/2000/svg" desc="Created with imagetracer.js version 1.2.6" ><path fill="rgb(74,44,44)" stroke="rgb(74,44,44)" stroke-width="1" opacity="0.08235294117647059" d="M 383.5 17 L 397 21 L 397.5 23 L 398.5 21 L 418 30.5 Q 415.5 32 419 33.5 L 420 37 L 425 40.5 Q 425.8 42.8 423.5 42 L 423.5 43 Q 427.3 41.8 426 45.5 L 428 45.5 L 430 51 Q 432.7 49.9 432 52.5 L 432.5 54 L 430 53 L 431.5 57 Q 434.9 56.1 433 61.5 L 435 63.5 L 436 68.5 L 436 70.5 L 436 73.5 L 440.5 82 L 442 82.5 L 441 84.5 L 443 88.5 L 442 91 Q 445.3 89.7 444 94.5 L 446 100 L 449 101.5 Q 447.8 107.6 450.5 107 L 450 108.5 L 451 111.5 L 450 115.5 L 451 117.5 L 450 122.5 L 453 132 L 455 132.5 L 455 134.5 L 456 138.5 L 455 140.5 L 458 145.5 L 457 148.5 L 459 154 L 457 154.5 L 459 155 L 457.5 158 L 457.5 156 L 455 157.5 L 457.5 162 L 458.5 160 L 461 160.5 L 459 165.5 L 462 167 Q 461.3 173.1 465 176.5 L 465 185.5 L 467 187.5 L 474 206.5 Q 472.7 213.3 475 216.5 L 474 217.5 L 474 228.5 L 471.5 234 L 471 232.5 L 472 231.5 L 472 212.5 L 470 209.5 L 469 202.5 L 461 188.5 L 460 181.5 L 451 166.5 L 451 164.5 L 448 154 L 446 153.5 L 446 151.5 L 445 149.5 L 446 147.5 L 445 146.5 L 445 135.5 L 446 130.5 L 439 107.5 L 437 93.5 L 437 91.5 L 435 79.5 L 427 54.5 L 413 34 L 395.5 24 L 388.5 23 L 381.5 26 L 367.5 23 Q 366.3 25.3 361.5 24 L 349.5 30 L 338 38 L 333 44.5 L 333 47 L 329 49.5 L 318 70.5 L 309 96.5 Q 306.6 103.6 308 114.5 Q 311.1 119.9 310 129.5 L 307 131 Q 305.3 133.4 306 139.5 L 310.5 142 L 312 141.5 L 303 169.5 L 296 180.5 L 296 186.5 L 297.5 189 L 298 181.5 L 300.5 179 L 301 180.5 L 299 187.5 L 299.5 189 Q 296.9 188.2 298 191.5 L 301 206.5 L 298 208 L 297 218 L 293 220.5 L 292 222.5 L 293 223.5 L 289.5 227 L 287.5 227 L 283 231.5 L 279 237.5 L 279 244.5 L 277 253.5 L 272 260.5 L 271.5 272 L 271 265 L 269 264.5 L 269 257.5 L 271 249.5 L 270.5 248 L 272 247.5 L 271 244.5 L 275 232 L 277 231.5 L 276.5 230 L 278 230 Q 276.5 226.3 279.5 227 L 281 224 L 283 224 Q 281.9 221.3 284.5 222 Q 289.8 220 288 212 Q 291 213.3 290 209.5 L 291 209.5 Q 290.3 213.3 292.5 214 L 293 209 L 295 208.5 L 293 204.5 L 293 202.5 L 292 197.5 L 292.5 196 Q 289.9 195.2 291 198.5 L 290 198.5 L 291 193.5 L 291 191.5 Q 289.3 184.2 293 182.5 L 291 181.5 L 294 181 L 295 178.5 L 294.5 177 L 297 175.5 Q 297.8 173.3 295.5 174 L 296 172.5 L 296.5 167 L 298 167.5 Q 297.2 160.7 301 158.5 Q 298.5 157 302 155.5 L 302 149.5 Q 299.3 150.1 300 147 L 304 145.5 L 300 143.5 L 303 142 L 304 137.5 Q 300 135.5 304 133.5 L 303 130 Q 307.1 131.7 306 127.5 L 304 127.5 Q 302.9 124.2 305.5 125 L 305 123.5 L 304 120 L 306 119.5 L 303.5 119 L 302 119.5 L 305 111.5 L 302 105.5 L 305 103.5 L 302 99 Q 306.1 100.3 305 97 Q 301.3 98.5 302 95.5 L 303 93.5 L 302 91.5 L 304 88.5 L 303 85.5 L 306 84 L 308 80.5 Q 305.3 79.8 306 75.5 L 310.5 73 Q 311.8 75.3 313 72.5 L 315 66.5 L 314 63 Q 316.7 64.1 316 61.5 L 317.5 59 L 318.5 61 Q 320.8 60.3 320 56.5 L 319 56.5 L 318.5 58 L 318 55.5 L 321.5 51 L 325 49.5 L 324.5 48 Q 326.8 48.8 326 46.5 L 330.5 41 L 334 39.5 Q 333.5 35.5 336.5 35 L 345 29.5 Q 344.2 26.9 347.5 28 L 348.5 26 L 343 28.5 L 341.5 31 L 341 29.5 L 343 26 L 346.5 24 L 355.5 23 L 357 23.5 L 358 20 L 363.5 18 L 374.5 20 Q 376 17.5 381.5 19 L 383.5 17 Z M 428 48 L 429 50 Q 430 47 428 48 Z M 306 99 L 304 101 Q 303 103 306 102 L 306 99 Z M 455 144 L 454 147 L 456 148 L 455 144 Z " /><path fill="rgb(74,44,44)" stroke="rgb(74,44,44)" stroke-width="1" opacity="0.08235294117647059" d="M 91.5 187 Q 104.7 185.3 113 188.5 L 102.5 189 L 101.5 188 L 91.5 188 L 89.5 192 L 89 189.5 L 91.5 187 Z " /><path fill="rgb(74,44,44)" stroke="rgb(74,44,44)" stroke-width="1" opacity="0.08235294117647059" d="M 119.5 188 L 178 188.5 L 119.5 189 L 119.5 188 Z " /><path fill="rgb(74,44,44)" stroke="rgb(74,44,44)" stroke-width="1" opacity="0.08235294117647059" d="M 182.5 190 L 183.5 192 L 182.5 190 Z " /><path fill="rgb(74,44,44)" stroke="rgb(74,44,44)" stroke-width="1" opacity="0.08235294117647059" d="M 90.5 193 L 94 203.5 L 93 203.5 L 90 196.5 L 90.5 193 Z " /><path fill="rgb(74,44,44)" stroke="rgb(74,44,44)" stroke-width="1" opacity="0.08235294117647059" d="M 186.5 200 L 189 207.5 L 188 207.5 L 186.5 200 Z " /><path fill="rgb(74,44,44)" stroke="rgb(74,44,44)" stroke-width="1" opacity="0.08235294117647059" d="M 94.5 205 L 102 227.5 L 101 227.5 L 98 220.5 L 98 216.5 L 94 208.5 L 94.5 205 Z " /><path fill="rgb(74,44,44)" stroke="rgb(74,44,44)" stroke-width="1" opacity="0.08235294117647059" d="M 189.5 209 Q 192.8 212.8 193 219.5 L 192 219.5 L 189.5 209 Z " /><path fill="rgb(74,44,44)" stroke="rgb(74,44,44)" stroke-width="1" opacity="0.08235294117647059" d="M 193.5 221 L 197 232.5 L 196 232.5 L 193.5 221 Z " /><path fill="rgb(74,44,44)" stroke="rgb(74,44,44)" stroke-width="1" opacity="0.08235294117647059" d="M 102.5 229 L 106 239.5 L 105 239.5 L 102 231.5 L 102.5 229 Z " /><path fill="rgb(74,44,44)" stroke="rgb(74,44,44)" stroke-width="1" opacity="0.08235294117647059" d="M 197.5 234 L 200 240.5 L 199 240.5 L 197.5 234 Z " /><path fill="rgb(74,44,44)" stroke="rgb(74,44,44)" stroke-width="1" opacity="0.08235294117647059" d="M 470.5 236 L 471 239.5 L 467.5 248 L 467 246.5 L 470.5 236 Z " /><path fill="rgb(74,44,44)" stroke="rgb(74,44,44)" stroke-width="1" opacity="0.08235294117647059" d="M 106.5 241 L 119 276.5 L 120 282.5 L 124 290.5 L 125 296.5 L 124 296.5 L 117 273.5 L 114 268.5 L 113 261.5 Q 109 255.5 108 246.5 L 106 243.5 L 106.5 241 Z " /><path fill="rgb(74,44,44)" stroke="rgb(74,44,44)" stroke-width="1" opacity="0.08235294117647059" d="M 201.5 245 L 204 253.5 L 203 253.5 L 201.5 245 Z " /><path fill="rgb(74,44,44)" stroke="rgb(74,44,44)" stroke-width="1" opacity="0.08235294117647059" d="M 466.5 250 L 467 253.5 L 466 253.5 L 466.5 250 Z " /><path fill="rgb(74,44,44)" stroke="rgb(74,44,44)" stroke-width="1" opacity="0.08235294117647059" d="M 465.5 255 L 466 258.5 L 465 258.5 L 465.5 255 Z " /><path fill="rgb(74,44,44)" stroke="rgb(74,44,44)" stroke-width="1" opacity="0.08235294117647059" d="M 205.5 258 L 208 266.5 L 207 266.5 L 205.5 258 Z " /><path fill="rgb(74,44,44)" stroke="rgb(74,44,44)" stroke-width="1" opacity="0.08235294117647059" d="M 463.5 264 L 464 266.5 L 463 266.5 L 463.5 264 Z " /><path fill="rgb(74,44,44)" stroke="rgb(74,44,44)" stroke-width="1" opacity="0.08235294117647059" d="M 208.5 268 Q 212.3 273.2 213 281.5 L 212 281.5 L 208.5 268 Z " /><path fill="rgb(74,44,44)" stroke="rgb(74,44,44)" stroke-width="1" opacity="0.08235294117647059" d="M 462.5 272 L 463 273.5 L 461.5 276 L 461 274.5 L 462.5 272 Z " /><path fill="rgb(74,44,44)" stroke="rgb(74,44,44)" stroke-width="1" opacity="0.08235294117647059" d="M 271.5 275 L 272 281.5 L 271 281.5 L 271.5 275 Z " /><path fill="rgb(74,44,44)" stroke="rgb(74,44,44)" stroke-width="1" opacity="0.08235294117647059" d="M 458.5 282 L 459 283.5 L 456.5 288 L 456 286.5 L 458.5 282 Z " /><path fill="rgb(74,44,44)" stroke="rgb(74,44,44)" stroke-width="1" opacity="0.08235294117647059" d="M 213.5 283 L 218 297.5 L 221 303 L 218 301.5 L 213 285.5 L 213.5 283 Z " /><path fill="rgb(74,44,44)" stroke="rgb(74,44,44)" stroke-width="1" opacity="0.08235294117647059" d="M 272.5 283 L 273 286.5 L 272 286.5 L 272.5 283 Z " /><path fill="rgb(74,44,44)" stroke="rgb(74,44,44)" stroke-width="1" opacity="0.08235294117647059" d="M 455.5 290 L 456 294.5 L 455 294.5 L 455.5 290 Z " /><path fill="rgb(74,44,44)" stroke="rgb(74,44,44)" stroke-width="1" opacity="0.08235294117647059" d="M 274.5 292 Q 277.5 293.5 274.5 295 L 272 294.5 L 275 293.5 L 274.5 292 Z " /><path fill="rgb(74,44,44)" stroke="rgb(74,44,44)" stroke-width="1" opacity="0.08235294117647059" d="M 242.5 293 L 240.5 296 L 242.5 293 Z " /><path fill="rgb(74,44,44)" stroke="rgb(74,44,44)" stroke-width="1" opacity="0.08235294117647059" d="M 251.5 293 L 257 293.5 L 251.5 294 L 251.5 293 Z " /><path fill="rgb(74,44,44)" stroke="rgb(74,44,44)" stroke-width="1" opacity="0.08235294117647059" d="M 258.5 294 L 267 294.5 L 258.5 295 L 258.5 294 Z " /><path fill="rgb(74,44,44)" stroke="rgb(74,44,44)" stroke-width="1" opacity="0.08235294117647059" d="M 232.5 297 L 235 297.5 L 232.5 298 L 232.5 297 Z " /><path fill="rgb(74,44,44)" stroke="rgb(74,44,44)" stroke-width="1" opacity="0.08235294117647059" d="M 454.5 297 L 455 300.5 L 453.5 304 L 453 301.5 L 454.5 297 Z " /><path fill="rgb(74,44,44)" stroke="rgb(74,44,44)" stroke-width="1" opacity="0.08235294117647059" d="M 125.5 298 L 129 307.5 L 128 307.5 L 125 300.5 L 125.5 298 Z " /><path fill="rgb(74,44,44)" stroke="rgb(74,44,44)" stroke-width="1" opacity="0.08235294117647059" d="M 227.5 298 L 231 298.5 L 227.5 299 L 227.5 298 Z " /><path fill="rgb(74,44,44)" stroke="rgb(74,44,44)" stroke-width="1" opacity="0.08235294117647059" d="M 224.5 299 L 226 299.5 L 222.5 301 L 222.5 300 L 224.5 299 Z " /><path fill="rgb(74,44,44)" stroke="rgb(74,44,44)" stroke-width="1" opacity="0.08235294117647059" d="M 452.5 305 L 453 307.5 L 452 307.5 L 452.5 305 Z " /><path fill="rgb(74,44,44)" stroke="rgb(74,44,44)" stroke-width="1" opacity="0.08235294117647059" d="M 129.5 309 Q 130 317 135 320.5 L 132 318.5 Q 127.8 315.1 129.5 309 Z " /><path fill="rgb(74,44,44)" stroke="rgb(74,44,44)" stroke-width="1" opacity="0.08235294117647059" d="M 451.5 309 L 452 311.5 L 451 311.5 L 451.5 309 Z " /><path fill="rgb(74,44,44)" stroke="rgb(74,44,44)" stroke-width="1" opacity="0.08235294117647059" d="M 235.5 313 Q 239.8 314.8 237 316.5 L 236 323.5 L 234 325.5 L 234 330 L 227 329 L 227 325.5 L 231.5 319 L 231 320.5 L 228 328 Q 231.8 329 233 326.5 L 235 323.5 L 236 315.5 L 232 317.5 L 235.5 313 Z " /><path fill="rgb(74,44,44)" stroke="rgb(74,44,44)" stroke-width="1" opacity="0.08235294117647059" d="M 450.5 313 L 451 316.5 L 448.5 322 L 448 320.5 L 450.5 313 Z " /><path fill="rgb(74,44,44)" stroke="rgb(74,44,44)" stroke-width="1" opacity="0.08235294117647059" d="M 136.5 321 L 149 325.5 L 148 329.5 L 161 335 L 160.5 337 L 147 331 Q 148.3 326.4 145.5 325 L 136.5 322 L 136.5 321 Z " /><path fill="rgb(74,44,44)" stroke="rgb(74,44,44)" stroke-width="1" opacity="0.08235294117647059" d="M 447.5 323 L 448 324.5 L 446.5 328 L 446 325.5 L 447.5 323 Z " /><path fill="rgb(74,44,44)" stroke="rgb(74,44,44)" stroke-width="1" opacity="0.08235294117647059" d="M 245.5 324 L 252 329.5 L 242.5 330 L 240 331 L 240 329 Q 242.7 330.1 242 327.5 L 243.5 325 L 244 326.5 L 243 329 L 248 328.5 L 245.5 324 Z " /><path fill="rgb(74,44,44)" stroke="rgb(74,44,44)" stroke-width="1" opacity="0.08235294117647059" d="M 443.5 334 L 444 336.5 L 441.5 341 L 441 339.5 L 443.5 334 Z " /><path fill="rgb(74,44,44)" stroke="rgb(74,44,44)" stroke-width="1" opacity="0.08235294117647059" d="M 163.5 337 L 176 344.5 L 174.5 345 L 164.5 339 L 163.5 337 Z " /><path fill="rgb(74,44,44)" stroke="rgb(74,44,44)" stroke-width="1" opacity="0.08235294117647059" d="M 179.5 345 L 184 345.5 L 179.5 346 L 179.5 345 Z " /><path fill="rgb(74,44,44)" stroke="rgb(74,44,44)" stroke-width="1" opacity="0.08235294117647059" d="M 439.5 345 L 440 346.5 L 436.5 354 L 436 352.5 L 439.5 345 Z " /><path fill="rgb(74,44,44)" stroke="rgb(74,44,44)" stroke-width="1" opacity="0.08235294117647059" d="M 185.5 346 L 192 348.5 L 190.5 349 L 185.5 347 L 185.5 346 Z " /><path fill="rgb(74,44,44)" stroke="rgb(74,44,44)" stroke-width="1" opacity="0.08235294117647059" d="M 195.5 350 L 217 360.5 L 214.5 361 Q 207.7 355.3 197.5 353 L 195.5 350 Z " /><path fill="rgb(74,44,44)" stroke="rgb(74,44,44)" stroke-width="1" opacity="0.08235294117647059" d="M 435.5 355 L 436 357.5 L 432.5 363 L 433 361.5 L 435.5 355 Z " /><path fill="rgb(74,44,44)" stroke="rgb(74,44,44)" stroke-width="1" opacity="0.08235294117647059" d="M 218.5 361 L 229.5 366 L 240 373.5 L 239.5 375 L 239 373 L 227.5 366 L 221.5 364 L 218.5 361 Z " /><path fill="rgb(74,44,44)" stroke="rgb(74,44,44)" stroke-width="1" opacity="0.08235294117647059" d="M 431.5 364 L 432 365.5 L 423 381.5 L 423 391.5 L 417 401.5 L 417 404.5 L 418 407.5 L 417 407.5 L 416 400.5 L 422 391.5 L 422 381.5 L 431.5 364 Z " /><path fill="rgb(74,44,44)" stroke="rgb(74,44,44)" stroke-width="1" opacity="0.08235294117647059" d="M 239.5 377 Q 239.5 383 242.5 386 L 255.5 386 L 277 391 L 276 404.5 L 274.5 408 L 274 404.5 L 276 392 L 259.5 388 L 242.5 387 L 240 386 L 239.5 377 Z " /><path fill="rgb(0,0,0)" stroke="rgb(0,0,0)" stroke-width="1" opacity="0" d="M 0 0 L 612 0 L 612 408 L 418.5 408 L 418 405.5 L 417 401.5 L 423 391.5 L 423 381.5 L 436 357.5 L 436 354.5 L 439 349.5 L 451 316.5 L 451 312.5 L 455 300.5 L 456 288.5 L 463 273.5 L 463 267.5 L 466 258.5 L 467 248.5 L 474 228.5 L 474 217.5 L 475 215.5 L 474 214.5 L 474 206.5 L 467 187.5 L 465 185.5 Q 466.7 177.3 463.5 174 L 462 174.5 L 463 171.5 L 462 167 L 459 165.5 L 461 160.5 L 458 160.5 L 457.5 162 L 455 157.5 L 457.5 156 L 459 156.5 Q 459.8 154.3 457.5 155 L 457.5 154 Q 459.8 154.8 459 152.5 L 457 148.5 L 458 145.5 L 454.5 139 L 453.5 141 L 453 139.5 L 456 138.5 L 454.5 134 L 452.5 135 L 452.5 134 L 455 132.5 L 453.5 132 L 451.5 133 L 451.5 132 Q 454.1 132.8 453 129.5 Q 449.5 126 450 118.5 L 451 116.5 L 450 112.5 L 450 110.5 L 451 107.5 L 449 107 L 449 100 Q 445.3 101.5 446 98.5 L 444 91 Q 441.3 92.1 442 89.5 L 442 87.5 L 441 83.5 L 441.5 82 L 439 80.5 L 435 69.5 L 436 67.5 L 433 61.5 L 433 57 L 430 55.5 L 430 53 Q 433 54 432 51 Q 429 52.3 430 48.5 L 428 45 Q 425 46 426 43 L 423.5 43 L 423.5 42 Q 425.8 42.8 425 40.5 L 420 37 L 417 31.5 L 417.5 30 L 405.5 24 L 402.5 24 L 398.5 21 L 397.5 23 L 397 21 L 388.5 18 L 384.5 18 L 381.5 19 Q 374.8 17.8 372.5 21 L 372.5 19 Q 364.4 17.4 361.5 21 L 362.5 19 L 364 18.5 L 361.5 18 L 358 20 L 356.5 24 L 354.5 23 L 351.5 24 L 349.5 24 L 346.5 24 L 343 26 L 343.5 28 L 350.5 25 L 350.5 26 L 345 28 L 342.5 32 L 340.5 32 L 334 37.5 L 332.5 41 L 329 42.5 L 326 48 L 324 48.5 Q 326.3 49.7 323.5 51 Q 319.5 50.5 319 53.5 L 318 57.5 L 319 57.5 L 320.5 55 L 320 56.5 Q 320.8 61.3 317.5 62 L 316 61.5 Q 316.7 64.1 314 63 L 314 66.5 L 314 68.5 Q 313.8 73.3 310.5 75 L 310.5 73 L 306 75.5 Q 304.1 80.9 307.5 80 L 306 82.5 Q 306.8 84.8 304.5 84 L 302 86.5 Q 305.5 88 303 89.5 L 302 92.5 L 303 94.5 L 302 97 Q 305.8 95.5 305 98.5 L 306 102 L 304 102.5 L 304.5 104 L 302 105.5 L 305 111.5 L 303 112.5 L 304 115.5 L 302 119.5 L 303.5 119 L 306 119.5 L 304 120 L 306 124.5 L 304 125 L 304.5 128 L 306 127.5 L 306 130 Q 302.3 128.5 303 131.5 L 304 133.5 Q 300 135.5 304 137.5 L 303 142 L 300 143.5 L 301.5 144 L 303 143.5 L 302.5 145 L 304 145.5 L 300 147 Q 299.3 150.1 302 149.5 L 302 155.5 L 300 159.5 L 297.5 168 L 296 167.5 Q 297.3 172.3 295 173.5 L 297 174 L 295.5 177 L 294 177.5 L 294 179.5 Q 294.8 182.1 291.5 181 L 291.5 182 L 293 182.5 L 291 184.5 Q 292.8 190.8 290 192.5 L 290 194.5 L 290.5 199 L 291 196 L 293 196.5 L 293 198.5 L 294 203.5 L 293 205.5 L 295 208.5 L 293 209 L 294 214.5 L 291 212.5 L 290.5 209 L 290 212 Q 286.5 210.9 288 218.5 L 283 222 L 283 224 Q 280.3 222.9 281 225.5 L 278 227 Q 279.5 230.8 276.5 230 L 276.5 232 Q 273.9 231.2 275 234.5 Q 271.5 239 271 246.5 L 271.5 248 L 270 248.5 L 271 251.5 Q 268 256.8 269 265 L 271 265.5 L 271 281.5 L 275 293.5 L 270.5 294 L 268.5 294 L 242.5 293 L 239.5 296 L 227.5 298 L 220.5 301 L 218 297.5 Q 216.5 287 212 279.5 L 212 275.5 L 208 267.5 L 208 263.5 L 204 254.5 L 200 238.5 L 197 233.5 L 192 213.5 L 186 199.5 L 186 195.5 L 182.5 190 L 177.5 188 L 108.5 188 L 107.5 187 L 91.5 187 Q 88.5 187.5 89 191.5 L 94 204.5 L 94 208.5 L 98 216.5 L 99 223.5 L 102 228.5 L 102 231.5 L 113 261.5 L 114 268.5 L 117 273.5 L 126 303.5 L 129 308.5 L 130 315.5 L 134.5 321 L 145.5 325 L 147 324.5 L 147 326.5 Q 145.1 331.9 148.5 331 L 150.5 332 L 152.5 331 L 152.5 332 L 151 332.5 L 153.5 333 L 155 332.5 L 154.5 334 L 160.5 337 L 163 336 L 163.5 338 L 165 337.5 L 164.5 339 L 166.5 338 L 166.5 340 L 171.5 343 L 173 342.5 L 172.5 344 L 174.5 343 L 174.5 345 L 177.5 344 L 179.5 346 L 184.5 346 L 191.5 349 L 193 348.5 L 193.5 350 L 195 349.5 L 195.5 351 L 197 350.5 Q 194.8 351.8 197.5 353 L 205.5 356 L 207 355.5 L 206.5 357 L 211.5 359 L 213 358.5 L 212.5 360 L 217.5 361 L 231.5 369 L 233 368.5 L 232.5 370 L 239 373 Q 238 381.4 240 386 L 242.5 387 L 259.5 388 L 276 392 L 274 408 L 0 408 L 0 0 Z M 343 28 L 341 31 L 343 30 L 343 28 Z M 302 99 L 304 102 L 305 100 L 302 99 Z " /><path fill="rgb(0,0,0)" stroke="rgb(0,0,0)" stroke-width="1" opacity="0" d="M 413.5 30 L 414.5 32 L 413.5 30 Z " /><path fill="rgb(0,0,0)" stroke="rgb(0,0,0)" stroke-width="1" opacity="0" d="M 453.5 143 Q 456.5 143.5 456 147.5 L 454 146.5 L 453.5 143 Z " /><path fill="rgb(0,0,0)" stroke="rgb(0,0,0)" stroke-width="1" opacity="0" d="M 235.5 315 L 236 318.5 L 235 323.5 L 231.5 328 Q 226.7 329.7 228 325.5 L 235.5 315 Z " /><path fill="rgb(0,0,0)" stroke="rgb(0,0,0)" stroke-width="1" opacity="0" d="M 244 325 Q 246.7 323.9 246 326.5 L 247.5 329 Q 242.1 330.9 243 327.5 L 244 325 Z " /><path fill="rgb(214,188,178)" stroke="rgb(214,188,178)" stroke-width="1" opacity="0.9921568627450981" d="M 366.5 38 L 369.5 44 Q 371.8 43.3 371 45.5 L 375 48 L 375 50.5 L 383 60.5 L 387 70.5 L 389 77.5 L 389 83.5 L 387 88 L 365 83.5 L 374 79.5 L 364.5 79 L 356.5 83 L 353 83 Q 352.6 91.2 358.5 94 L 361 94 Q 359.9 96.7 362.5 96 L 365 95 Q 363.9 92.3 366.5 93 L 369 92 Q 367.5 95.8 370.5 95 L 372.5 98 L 370 97.5 L 370.5 96 L 368 96 Q 369.3 99 365.5 98 L 365.5 99 L 370.5 100 L 376.5 98 L 379 95.5 Q 378.3 93.3 380.5 94 L 389 91 L 392 99.5 L 392 109.5 L 388 117.5 L 388 120.5 L 392 124.5 L 391 125.5 L 392 129.5 L 387.5 138 L 379 143 L 376.5 147 L 360.5 155 L 358.5 155 Q 349.4 154.6 346 148.5 L 347.5 145 L 358 142 Q 360.1 136.8 355.5 138 L 352.5 139 L 347 138 L 346 134 L 362.5 133 L 370 128.5 L 367.5 128 Q 365.2 131.2 358.5 130 L 357.5 129 L 348.5 129 L 347 127.5 Q 346.3 125.3 348.5 126 L 352.5 122 L 358 119.5 L 357.5 118 L 348.5 118 L 344.5 119 L 340.5 116 L 340 118.5 Q 342.8 120.2 338.5 122 L 334 119 Q 330.4 114.3 330 105.5 L 332.5 103 L 337.5 103 L 344 99.5 L 345 90.5 L 339.5 84 L 336.5 83 L 334.5 83 L 328 82 L 329 72.5 L 333 59.5 L 343.5 48 L 353.5 43 L 359.5 43 L 366 41 L 366.5 38 Z M 361 46 L 358 47 L 350 58 L 350 63 L 354 62 L 356 66 Q 360 67 357 69 L 355 68 L 352 73 L 353 76 L 355 77 Q 359 76 361 78 L 375 78 L 376 79 Q 379 80 380 78 L 377 72 L 379 68 L 378 63 L 367 49 Q 368 45 366 46 L 363 47 L 361 46 Z M 349 95 L 349 98 Q 345 99 348 101 Q 344 106 344 115 L 349 114 L 350 108 L 353 107 L 356 108 L 364 108 L 365 107 Q 367 108 366 104 L 361 100 L 357 99 L 355 100 Q 350 101 352 97 L 349 95 Z M 385 96 L 380 100 L 377 102 L 373 107 L 377 108 L 385 105 L 386 103 Q 387 98 385 96 Z " /><path fill="rgb(214,188,178)" stroke="rgb(214,188,178)" stroke-width="1" opacity="0.9921568627450981" d="M 335 94 Q 337.7 92.9 337 95.5 L 338 98 L 335 96.5 L 335 94 Z " /><path fill="rgb(214,188,178)" stroke="rgb(214,188,178)" stroke-width="1" opacity="0.9921568627450981" d="M 341.5 151 L 344 151.5 L 343.5 153 Q 346.1 152.2 345 155.5 L 348 157 L 350 162 L 358.5 165 L 360.5 164 L 362.5 164 L 368.5 160 L 363.5 166 L 354.5 171 L 349 168 L 346.5 163 Q 344.3 163.8 345 161.5 L 342 159.5 L 343 157 L 339.5 156 L 336 158 L 329 174.5 L 328 189.5 L 330.5 195 L 331.5 193 L 334 193.5 L 335.5 196 L 337 195.5 L 335 192.5 L 337 191.5 Q 336.1 194.9 341.5 193 L 343 193.5 Q 341.1 188.1 344.5 189 L 347.5 193 L 350.5 192 L 354 194.5 L 355 192.5 L 354 188.5 L 355 188.5 Q 354.3 191.1 357 190 L 357 193 L 358.5 193 L 360.5 194 L 362 192.5 L 360.5 190 Q 362.3 193.8 364 190.5 L 363 187.5 L 364 185 Q 361.3 186.1 362 183.5 L 364.5 185 L 366 185.5 L 365 188.5 Q 366.5 191.5 368 188.5 L 369 186.5 L 369 182.5 Q 366.3 178.7 368 170.5 L 369 170.5 L 369.5 173 L 370 169.5 L 369 167.5 L 373.5 162 L 374.5 163 L 378.5 159 Q 381.5 158.1 380 162.5 L 380 164.5 L 379 171.5 L 374 180.5 L 375 182.5 L 372 184 L 369.5 177 L 369 179.5 L 371 186.5 L 366 191.5 L 367 192.5 L 365 198 L 362.5 199 L 364 196.5 L 363.5 195 L 359 199.5 L 359 201.5 L 360.5 204 Q 358.3 204.8 359 202.5 L 357 203.5 Q 358.3 209.6 355.5 209 L 355.5 210 L 358 210.5 L 357 213.5 L 355 216.5 L 353 221.5 L 346 230.5 L 346 232.5 L 342.5 238 L 341 237.5 L 343 234.5 L 340 236.5 L 334 246.5 L 337 245.5 Q 335 249.2 333 247.5 L 331.5 250 L 329 251.5 L 319.5 262 L 316.5 264 L 315 264.5 L 316.5 261 L 318.5 261 L 328 252.5 L 329 249 L 331 249 L 331 247 Q 333.7 248.1 333 245.5 Q 335.8 244.4 335 241 Q 337.7 242.1 337 239.5 L 352 214 L 345 217.5 Q 342.2 219.5 343 224 Q 340 225.3 341 221.5 L 341.5 220 L 336.5 223 L 333 223 Q 334.1 225.7 331.5 225 L 324 231.5 L 322.5 234 L 315.5 233 L 307.5 237 L 305.5 237 L 298 242.5 Q 298.8 244.8 296.5 244 L 300.5 239 L 303 237.5 L 304.5 235 Q 306.8 232.3 312.5 233 L 319.5 229 L 322.5 229 L 329 223.5 L 334.5 215 L 337.5 216 L 340.5 215 L 349 213.5 Q 341.8 214 339 211 L 329 197.5 L 327 192.5 L 327 178.5 L 329 169.5 L 333 162.5 L 333 159.5 L 339.5 152 L 341.5 151 Z M 356 194 L 354 197 L 357 199 L 356 194 Z M 345 231 L 343 234 L 346 232 L 345 231 Z " /><path fill="rgb(214,188,178)" stroke="rgb(214,188,178)" stroke-width="1" opacity="0.9921568627450981" d="M 375.5 155 Q 378.8 153.9 378 156.5 L 377 159 Q 374.3 157.9 375 160.5 L 374 160.5 L 375 158.5 L 373.5 158 L 370.5 160 L 371.5 158 L 375.5 155 Z " /><path fill="rgb(214,188,178)" stroke="rgb(214,188,178)" stroke-width="1" opacity="0.9921568627450981" d="M 436.5 168 L 438.5 169 L 440.5 168 L 445 171.5 Q 444.3 173.8 446.5 173 Q 450.5 174.9 451 180.5 L 460 189.5 L 460 192.5 L 464 199.5 L 465 208.5 L 470 223.5 L 471 230.5 L 468 242 L 466 242.5 L 467 244.5 L 465 252.5 L 465 254.5 L 465 258.5 Q 461.4 259.9 462 265.5 Q 464.3 266.8 463 271.5 L 457.5 283 Q 454.1 282.1 456 287.5 L 455 290.5 L 455 296.5 L 450 310.5 L 450 314.5 L 439.5 341 L 438 340.5 L 439 343.5 L 436 346.5 L 434 355.5 L 431 361 Q 428 359.8 429 363.5 L 427 369 Q 424.3 367.9 425 370.5 L 422 374.5 Q 424.5 376 421 377.5 L 417.5 385 Q 415.3 384.3 416 386.5 L 415 389 Q 412.3 387.9 413 390.5 L 412 393 L 409 394.5 Q 409.9 397.9 404.5 396 L 404.5 398 L 401.5 397 L 399.5 397 L 397.5 396 L 393.5 398 L 389.5 396 L 385.5 398 L 386.5 396 L 389 395.5 L 385.5 395 L 384 395.5 L 385.5 393 L 383.5 394 L 382.5 393 L 379.5 396 L 378.5 395 L 355.5 396 L 353.5 395 Q 352 397.5 346.5 396 L 338.5 394 L 336.5 395 L 331.5 394 L 324.5 394 L 316.5 391 L 311.5 391 L 304 387.5 L 305.5 387 L 310.5 388 L 316.5 386 L 318.5 387 L 318 385.5 L 318.5 383 L 323.5 384 L 323.5 383 L 317 381.5 L 319.5 381 L 321 381.5 Q 320.1 378.1 325.5 380 L 325.5 378 L 329 379 L 330.5 376 L 332.5 377 Q 333.8 374 338 375 Q 336.9 371.5 344.5 373 L 344.5 372 L 343 371.5 L 346.5 370 L 348.5 370 L 350.5 369 L 352 369.5 Q 351.2 366.9 354.5 368 L 361 365 L 360 360.5 L 362 356 L 358 355.5 L 363 355 Q 362.3 361 365 364 L 363 364.5 L 363.5 367 L 366 367.5 L 360 369 Q 361.3 372 357.5 371 L 357.5 372 L 363 372.5 L 360.5 374 L 359 373.5 L 358.5 375 L 356 374 Q 357.3 377 353.5 376 L 353.5 377 L 358.5 377 L 365.5 375 L 367.5 375 L 372 375.5 L 357.5 379 L 355.5 379 L 352 379.5 L 358.5 381 L 359 379 L 370.5 378 L 377 376 L 379.5 372 L 383.5 371 L 383.5 372 L 379 374.5 L 382.5 376 L 382.5 375 L 381 374.5 L 383.5 373 L 383.5 375 L 385 375.5 L 382 377.5 L 385 378.5 L 383 379.5 L 385.5 380 L 390 376.5 L 389.5 375 L 391.5 376 L 391 374.5 L 392 372.5 L 391.5 370 Q 388.9 370.7 390 368 Q 393 369 392 366 L 390 365.5 L 392.5 364 L 393.5 367 L 396.5 366 L 394.5 370 L 396.5 369 L 394 372.5 L 394.5 374 L 398.5 371 L 398 372.5 L 398.5 374 L 400 373.5 L 399 378.5 Q 398.2 381.5 402 380 L 403.5 377 L 404.5 379 Q 408.8 377.3 406 375.5 L 406.5 374 Q 407.7 376.3 409 373.5 L 407 371.5 L 412 366.5 L 413.5 364 L 414.5 367 Q 418.2 365 416.5 363 L 419 364 L 418 361.5 L 423 358.5 L 421.5 358 L 415.5 360 L 415.5 359 L 421 356.5 L 420 354.5 L 424 353 L 428 343.5 Q 425.5 342 429 340.5 L 430 338.5 L 427 337.5 L 431 336.5 L 429.5 332 Q 431.8 332.8 431 330.5 L 434 327.5 L 432.5 325 L 434.5 326 L 434 324.5 L 433 322.5 L 434.5 323 L 436 322.5 L 434.5 320 Q 436.8 320.8 436 318.5 L 439 312.5 L 438.5 311 L 441.5 309 L 441.5 307 L 443 306.5 L 441 305.5 L 442 303 L 445 302.5 L 442 300.5 L 443 298.5 L 443 296.5 Q 442.2 293.9 445.5 295 L 447 295.5 L 447 294 Q 443.2 295.5 444 292.5 L 446 292.5 L 445 290.5 L 448 289.5 L 445 288.5 L 447 288 L 448 284.5 L 447.5 283 L 450 281.5 L 449.5 280 L 451 279.5 L 450 277.5 L 452 272 L 450 271.5 L 453 270.5 L 451 269.5 L 454 268.5 L 452.5 266 L 455.5 267 L 455 265.5 L 454 262.5 L 457 259.5 L 455.5 257 Q 459.3 258.3 458 254.5 L 460 252.5 L 460 248.5 Q 463 247.3 462 243 Q 465.7 244.3 464 238.5 L 464 236.5 L 465 232.5 L 464 229.5 Q 466.3 226.3 465 219.5 L 463 219.5 L 464.5 215 L 466 215.5 Q 466.9 212.5 462.5 214 L 463 212.5 L 464 209 Q 461.3 210.1 462 207.5 L 462 205.5 L 463 203.5 L 461 199.5 L 455 185 Q 450.4 185.6 448.5 182 L 446.5 182 L 443.5 180 L 434.5 179 L 431.5 181 L 429.5 181 L 424 183 Q 425.1 185.7 422.5 185 L 423 186.5 L 424 188.5 L 421.5 189 Q 418.9 188.2 420 191.5 L 409 205 L 407 205.5 L 409 208.5 Q 404.3 212.3 404 220.5 L 400 225.5 L 400 231.5 L 401.5 234 L 400 234.5 L 402.5 236 L 403.5 234 L 404 237.5 L 401 245.5 L 402 247.5 L 399 262.5 L 397 264.5 L 394 275.5 L 390 282.5 Q 389.3 290.8 385.5 296 L 385 289 L 382.5 288 L 381.5 291 L 380.5 286 L 378.5 290 L 376.5 291 L 375.5 286 L 374.5 288 L 373.5 286 L 370 288.5 L 373 289.5 L 368 290 L 368.5 292 L 372.5 291 L 372.5 292 L 368 293.5 L 374 297 Q 375 300 372 299 L 371.5 297 L 370 297.5 L 368.5 295 L 368 296.5 L 368 298.5 L 367.5 301 L 366.5 297 L 363 298 Q 361.5 301.8 364.5 301 L 364.5 299 Q 367.9 298.1 366 303.5 L 364.5 306 L 364 303.5 L 364.5 302 L 362.5 301 L 361.5 305 L 361 302 L 357.5 303 L 357 301 L 355 300.5 L 356.5 300 L 358 300.5 L 359 298.5 L 358.5 296 L 355 297 L 354.5 293 L 353.5 295 L 351 293.5 L 353 292.5 L 350 291.5 L 348.5 289 L 347.5 291 L 345 290 L 346 292.5 L 343.5 293 L 342 292.5 L 340.5 295 L 335.5 293 L 333 294 L 330.5 288 L 329 288.5 Q 328.3 286.3 330.5 287 L 330.5 286 Q 327.5 286.9 329 282.5 L 327 277.5 L 332 260 L 328 260.5 L 330 261.5 L 318 269.5 L 318.5 271 Q 316.3 270.3 317 272.5 L 314 277.5 L 314.5 279 L 313 279.5 L 314.5 282 Q 312.3 282.8 313 280.5 L 312 280.5 Q 313.3 286.6 310.5 286 L 310.5 287 L 313 288.5 L 310 289.5 L 309.5 293 L 308.5 290 L 306 291 Q 305 294 308 293 L 308 295.5 L 307 295.5 L 305.5 293 Q 301.8 294 303 291 L 305 290.5 L 303 287.5 Q 303.9 280.7 302 278 L 304 277.5 L 302 277 L 301 273.5 L 303.5 270 L 305.5 271 L 308 269.5 L 307.5 268 Q 308.8 270.3 310 267.5 L 308 266.5 L 311.5 265 L 314 265.5 L 302 273.5 L 306.5 274 L 312.5 270 L 314.5 270 L 318 267.5 L 319.5 265 L 323 262.5 L 329.5 254 L 337.5 249 L 337 250.5 L 335 255.5 L 336.5 255 Q 338.8 254.3 338 256.5 L 334 265.5 L 335 268.5 L 332 270 Q 333.5 274.5 329 273 L 329 277.5 L 330 277.5 L 330.5 276 L 331.5 278 L 330 278.5 L 330 285 L 340 281 L 338 285.5 L 339.5 288 L 341 285 Q 344 286.3 343 282.5 L 344 280 L 349 276.5 L 351.5 272 L 352 275.5 L 351 280 Q 354.3 278.7 353 283.5 L 354.5 286 L 358.5 279 L 365 280 L 366 282.5 Q 363.8 283.8 365 288.5 L 366 288.5 Q 366.5 283 370.5 281 Q 372.8 281.8 372 279.5 L 377 276 Q 378.1 273.3 375.5 274 L 374 274.5 Q 373.2 271.9 376.5 273 L 379 274 L 380.5 270 L 381 272 L 383 272.5 Q 378.9 275.7 380 283 L 382.5 282 L 386.5 284 L 388 283.5 L 388.5 285 L 399 254.5 L 399 224.5 L 401 213 Q 404.3 214.3 403 209.5 L 407 201.5 L 419 187.5 L 420 184 L 423.5 183 L 431 176.5 L 431 174.5 L 436.5 168 Z M 461 269 L 459 271 Q 458 273 461 272 L 461 269 Z M 312 272 L 310 274 L 312 274 L 312 272 Z M 455 280 L 453 282 L 455 282 L 455 280 Z M 374 281 L 374 283 L 376 282 L 374 281 Z M 448 287 L 448 289 L 450 288 L 448 287 Z M 448 292 L 449 294 Q 450 291 448 292 Z M 421 361 L 420 363 L 423 364 L 421 361 Z M 392 368 L 392 370 L 394 369 L 392 368 Z M 350 377 L 350 378 L 352 378 L 350 377 Z M 375 377 L 373 378 L 373 379 L 378 378 L 375 377 Z M 390 378 L 389 380 L 391 379 L 390 378 Z M 369 379 L 369 380 L 372 380 L 369 379 Z M 323 381 L 323 382 L 325 382 L 323 381 Z M 352 381 L 352 382 L 354 382 L 352 381 Z M 370 383 L 370 384 L 373 384 L 370 383 Z M 394 383 L 392 385 L 389 384 L 388 386 Q 393 387 394 385 L 394 383 Z M 387 386 L 384 388 L 387 388 L 387 386 Z M 315 387 L 315 388 L 317 388 L 315 387 Z M 314 389 L 314 390 L 316 390 L 314 389 Z " /><path fill="rgb(214,188,178)" stroke="rgb(214,188,178)" stroke-width="1" opacity="0.9921568627450981" d="M 180.5 189 L 183.5 193 Q 181.8 189.9 180 191.5 L 180.5 189 Z " /><path fill="rgb(214,188,178)" stroke="rgb(214,188,178)" stroke-width="1" opacity="0.9921568627450981" d="M 181.5 193 L 182.5 195 L 181.5 193 Z " /><path fill="rgb(214,188,178)" stroke="rgb(214,188,178)" stroke-width="1" opacity="0.9921568627450981" d="M 183.5 196 L 186 196.5 L 185.5 200 L 183.5 196 Z " /><path fill="rgb(214,188,178)" stroke="rgb(214,188,178)" stroke-width="1" opacity="0.9921568627450981" d="M 413.5 221 L 414 223 L 412 222.5 L 413.5 221 Z " /><path fill="rgb(214,188,178)" stroke="rgb(214,188,178)" stroke-width="1" opacity="0.9921568627450981" d="M 402.5 225 L 404 227.5 L 403 227.5 L 402.5 225 Z " /><path fill="rgb(214,188,178)" stroke="rgb(214,188,178)" stroke-width="1" opacity="0.9921568627450981" d="M 407 225 Q 409.7 223.9 409 226.5 L 406.5 230 L 406 228.5 L 407 225 Z " /><path fill="rgb(214,188,178)" stroke="rgb(214,188,178)" stroke-width="1" opacity="0.9921568627450981" d="M 382.5 229 L 384 232 L 381 230.5 L 382.5 229 Z " /><path fill="rgb(214,188,178)" stroke="rgb(214,188,178)" stroke-width="1" opacity="0.9921568627450981" d="M 404.5 230 L 405 232.5 L 404 232.5 L 404.5 230 Z " /><path fill="rgb(214,188,178)" stroke="rgb(214,188,178)" stroke-width="1" opacity="0.9921568627450981" d="M 341.5 239 L 342 240.5 L 339 242.5 L 341.5 239 Z " /><path fill="rgb(214,188,178)" stroke="rgb(214,188,178)" stroke-width="1" opacity="0.9921568627450981" d="M 292.5 245 L 288.5 250 L 285.5 252 L 288.5 248 L 292.5 245 Z " /><path fill="rgb(214,188,178)" stroke="rgb(214,188,178)" stroke-width="1" opacity="0.9921568627450981" d="M 283.5 252 L 281.5 255 L 283.5 252 Z " /><path fill="rgb(214,188,178)" stroke="rgb(214,188,178)" stroke-width="1" opacity="0.9921568627450981" d="M 279.5 255 L 280 256.5 L 275.5 262 L 276 260.5 L 279.5 255 Z " /><path fill="rgb(214,188,178)" stroke="rgb(214,188,178)" stroke-width="1" opacity="0.9921568627450981" d="M 348.5 259 L 351 260.5 Q 349.4 269.1 345 274 Q 342.3 272.9 343 275.5 L 335.5 281 L 335 278.5 L 339 274.5 L 343 264 L 346 262.5 L 348.5 259 Z " /><path fill="rgb(214,188,178)" stroke="rgb(214,188,178)" stroke-width="1" opacity="0.9921568627450981" d="M 274.5 263 L 274 264.5 Q 273.3 266.8 275.5 266 L 274 268.5 L 273 272.5 L 274 277.5 L 280 287.5 L 280 289.5 L 282 298.5 Q 287.2 302.4 288 310 Q 285 311.3 286 307.5 L 281.5 299 L 274 297 L 276 293.5 L 273 288.5 L 273 286.5 L 271 272.5 Q 273.5 271 272 265.5 L 274.5 263 Z " /><path fill="rgb(214,188,178)" stroke="rgb(214,188,178)" stroke-width="1" opacity="0.9921568627450981" d="M 277.5 265 L 280 265.5 Q 277.9 268.8 277.5 265 Z " /><path fill="rgb(214,188,178)" stroke="rgb(214,188,178)" stroke-width="1" opacity="0.9921568627450981" d="M 294.5 268 Q 297.6 269.4 297 274.5 L 294 272.5 L 294.5 268 Z " /><path fill="rgb(214,188,178)" stroke="rgb(214,188,178)" stroke-width="1" opacity="0.9921568627450981" d="M 368.5 273 L 371 273.5 L 372 275.5 L 367.5 281 L 367 278.5 L 368.5 273 Z " /><path fill="rgb(214,188,178)" stroke="rgb(214,188,178)" stroke-width="1" opacity="0.9921568627450981" d="M 363.5 274 Q 366.1 273.2 365 276.5 L 366 279 Q 362.2 279.8 361 276.5 L 363.5 274 Z " /><path fill="rgb(214,188,178)" stroke="rgb(214,188,178)" stroke-width="1" opacity="0.9921568627450981" d="M 315.5 291 L 316.5 293 Q 313.7 293.7 315.5 291 Z " /><path fill="rgb(214,188,178)" stroke="rgb(214,188,178)" stroke-width="1" opacity="0.9921568627450981" d="M 243.5 293 L 264 295 Q 262.8 298 266.5 297 L 275.5 299 L 281 302 L 284 307.5 L 285.5 315 L 288.5 311 L 290 324.5 L 289 325.5 L 289 333.5 L 290 333.5 L 291.5 324 L 292 327.5 L 291 330.5 L 292 337 Q 295.4 336.3 296.5 339 L 300.5 338 L 304 340 Q 302.4 337.9 303 332.5 L 304 332.5 Q 303 339 306.5 341 Q 314.8 341.2 319.5 345 L 323.5 345 L 328 347.5 L 325 348.5 L 329.5 351 L 331.5 350 L 334.5 352 Q 335.8 349.8 340.5 351 L 343.5 352 L 357 354.5 L 346.5 355 L 345.5 354 L 330.5 353 L 314.5 350 L 302.5 350 L 301.5 349 L 294.5 349 L 293.5 348 L 274 345.5 L 281.5 345 L 283.5 346 L 287 344.5 L 274.5 341 L 273 339.5 L 275.5 339 L 280.5 340 L 284 336.5 L 283 335.5 L 282.5 324 L 280 329 L 276.5 330 L 273.5 328 Q 271.3 331.5 266 331 L 263 323.5 L 266 318.5 Q 263.8 317.3 265 312.5 L 266 309.5 L 259.5 307 L 251 312.5 L 245 322.5 L 239.5 328 L 237.5 329 L 235 328 Q 236.4 317.1 242 309.5 L 242 306.5 L 239.5 308 Q 234.5 307.5 234 311.5 L 226.5 324 L 224 319.5 L 220 304.5 L 222.5 301 L 240.5 296 L 243.5 293 Z M 283 315 L 283 317 L 285 316 L 283 315 Z " /><path fill="rgb(214,188,178)" stroke="rgb(214,188,178)" stroke-width="1" opacity="0.9921568627450981" d="M 372.5 293 L 373.5 295 Q 370.7 295.7 372.5 293 Z " /><path fill="rgb(214,188,178)" stroke="rgb(214,188,178)" stroke-width="1" opacity="0.9921568627450981" d="M 267.5 294 L 269 294.5 L 266.5 296 L 267.5 294 Z " /><path fill="rgb(214,188,178)" stroke="rgb(214,188,178)" stroke-width="1" opacity="0.9921568627450981" d="M 416.5 294 L 415.5 296 L 416.5 294 Z " /><path fill="rgb(214,188,178)" stroke="rgb(214,188,178)" stroke-width="1" opacity="0.9921568627450981" d="M 294.5 295 L 298 297.5 L 301 301.5 L 301 304.5 L 298 302.5 L 294.5 295 Z " /><path fill="rgb(214,188,178)" stroke="rgb(214,188,178)" stroke-width="1" opacity="0.9921568627450981" d="M 304.5 296 L 305.5 298 Q 302.7 298.7 304.5 296 Z " /><path fill="rgb(214,188,178)" stroke="rgb(214,188,178)" stroke-width="1" opacity="0.9921568627450981" d="M 285.5 298 L 286.5 300 L 285.5 298 Z " /><path fill="rgb(214,188,178)" stroke="rgb(214,188,178)" stroke-width="1" opacity="0.9921568627450981" d="M 408.5 298 L 409 299.5 L 407 300.5 L 408.5 298 Z " /><path fill="rgb(214,188,178)" stroke="rgb(214,188,178)" stroke-width="1" opacity="0.9921568627450981" d="M 303 299 Q 308.2 297.2 306 304.5 L 305 304.5 L 304 302.5 L 304.5 301 Q 301.9 301.7 303 299 Z " /><path fill="rgb(214,188,178)" stroke="rgb(214,188,178)" stroke-width="1" opacity="0.9921568627450981" d="M 370.5 301 Q 373.8 299.9 373 302.5 L 371.5 302 L 370.5 301 Z " /><path fill="rgb(214,188,178)" stroke="rgb(214,188,178)" stroke-width="1" opacity="0.9921568627450981" d="M 384.5 301 L 385 304.5 L 384 304.5 L 384.5 301 Z " /><path fill="rgb(214,188,178)" stroke="rgb(214,188,178)" stroke-width="1" opacity="0.9921568627450981" d="M 367.5 302 L 368 304.5 L 367 304.5 L 367.5 302 Z " /><path fill="rgb(214,188,178)" stroke="rgb(214,188,178)" stroke-width="1" opacity="0.9921568627450981" d="M 417.5 304 L 417 305.5 L 416.5 307 L 416 305.5 L 417.5 304 Z " /><path fill="rgb(214,188,178)" stroke="rgb(214,188,178)" stroke-width="1" opacity="0.9921568627450981" d="M 369.5 305 L 373 306 L 372.5 308 L 369.5 305 Z " /><path fill="rgb(214,188,178)" stroke="rgb(214,188,178)" stroke-width="1" opacity="0.9921568627450981" d="M 306.5 306 L 307.5 308 Q 304.7 308.7 306.5 306 Z " /><path fill="rgb(214,188,178)" stroke="rgb(214,188,178)" stroke-width="1" opacity="0.9921568627450981" d="M 369.5 307 L 368.5 309 L 369.5 307 Z " /><path fill="rgb(214,188,178)" stroke="rgb(214,188,178)" stroke-width="1" opacity="0.9921568627450981" d="M 408.5 307 L 411 307.5 L 408.5 308 L 408.5 307 Z " /><path fill="rgb(214,188,178)" stroke="rgb(214,188,178)" stroke-width="1" opacity="0.9921568627450981" d="M 292 309 Q 294.7 307.9 294 310.5 L 296 315.5 L 294.5 315 Q 291.5 315.9 293 311.5 L 292 309 Z " /><path fill="rgb(214,188,178)" stroke="rgb(214,188,178)" stroke-width="1" opacity="0.9921568627450981" d="M 370.5 310 L 373 311.5 L 372.5 313 L 370.5 310 Z " /><path fill="rgb(214,188,178)" stroke="rgb(214,188,178)" stroke-width="1" opacity="0.9921568627450981" d="M 378 311 L 381 311.5 L 379 312.5 L 380 314.5 L 379 314.5 L 378 311 Z " /><path fill="rgb(214,188,178)" stroke="rgb(214,188,178)" stroke-width="1" opacity="0.9921568627450981" d="M 300 313 Q 303 311.8 302 315.5 L 300 314.5 L 300 313 Z " /><path fill="rgb(214,188,178)" stroke="rgb(214,188,178)" stroke-width="1" opacity="0.9921568627450981" d="M 316 314 Q 319.3 312.7 318 317.5 L 316.5 317 L 315 316.5 L 316 314 Z " /><path fill="rgb(214,188,178)" stroke="rgb(214,188,178)" stroke-width="1" opacity="0.9921568627450981" d="M 380.5 320 L 381 326.5 L 380 326.5 L 380.5 320 Z " /><path fill="rgb(214,188,178)" stroke="rgb(214,188,178)" stroke-width="1" opacity="0.9921568627450981" d="M 302.5 327 L 304 329.5 L 302 328.5 L 302.5 327 Z " /><path fill="rgb(214,188,178)" stroke="rgb(214,188,178)" stroke-width="1" opacity="0.9921568627450981" d="M 367.5 335 L 368 338 L 365 336.5 L 367 336.5 L 367.5 335 Z " /><path fill="rgb(214,188,178)" stroke="rgb(214,188,178)" stroke-width="1" opacity="0.9921568627450981" d="M 388.5 339 L 390 341.5 L 386.5 342 L 386.5 341 Q 389 341.7 388.5 339 Z " /><path fill="rgb(214,188,178)" stroke="rgb(214,188,178)" stroke-width="1" opacity="0.9921568627450981" d="M 233 341 L 239.5 341 L 240 342.5 L 235.5 346 L 233 345 L 233 341 Z " /><path fill="rgb(214,188,178)" stroke="rgb(214,188,178)" stroke-width="1" opacity="0.9921568627450981" d="M 241.5 341 L 244 341.5 L 241.5 342 L 241.5 341 Z " /><path fill="rgb(214,188,178)" stroke="rgb(214,188,178)" stroke-width="1" opacity="0.9921568627450981" d="M 259 343 L 261.5 344 L 271 344.5 L 261.5 345 L 259 344.5 L 259 343 Z " /><path fill="rgb(214,188,178)" stroke="rgb(214,188,178)" stroke-width="1" opacity="0.9921568627450981" d="M 373.5 343 L 379 346.5 L 380 348.5 L 378.5 348 L 374 345.5 L 373.5 343 Z " /><path fill="rgb(214,188,178)" stroke="rgb(214,188,178)" stroke-width="1" opacity="0.9921568627450981" d="M 393 344 L 395 344.5 L 393 345.5 L 393 344 Z " /><path fill="rgb(214,188,178)" stroke="rgb(214,188,178)" stroke-width="1" opacity="0.9921568627450981" d="M 243.5 345 L 247 345.5 L 243.5 346 L 243.5 345 Z " /><path fill="rgb(214,188,178)" stroke="rgb(214,188,178)" stroke-width="1" opacity="0.9921568627450981" d="M 249.5 345 Q 252.1 344.3 251 347 L 248 346.5 L 249.5 345 Z " /><path fill="rgb(214,188,178)" stroke="rgb(214,188,178)" stroke-width="1" opacity="0.9921568627450981" d="M 397.5 349 L 401 350.5 L 400.5 352 L 400 350 Q 396.7 350.8 397.5 349 Z " /><path fill="rgb(214,188,178)" stroke="rgb(214,188,178)" stroke-width="1" opacity="0.9921568627450981" d="M 381.5 350 Q 383.8 349.3 383 351.5 L 383.5 353 Q 381.3 353.8 382 351.5 L 381.5 350 Z " /><path fill="rgb(214,188,178)" stroke="rgb(214,188,178)" stroke-width="1" opacity="0.9921568627450981" d="M 416.5 352 L 419 352.5 L 415.5 354 L 416.5 352 Z " /><path fill="rgb(214,188,178)" stroke="rgb(214,188,178)" stroke-width="1" opacity="0.9921568627450981" d="M 402.5 353 L 403.5 355 L 404.5 353 L 405 354.5 L 403.5 357 L 402.5 355 L 400.5 358 L 401 356.5 L 402.5 353 Z " /><path fill="rgb(214,188,178)" stroke="rgb(214,188,178)" stroke-width="1" opacity="0.9921568627450981" d="M 384.5 354 L 387 357.5 L 385 356.5 L 384.5 354 Z " /><path fill="rgb(214,188,178)" stroke="rgb(214,188,178)" stroke-width="1" opacity="0.9921568627450981" d="M 407.5 356 L 408 358 L 406 357.5 L 407.5 356 Z " /><path fill="rgb(214,188,178)" stroke="rgb(214,188,178)" stroke-width="1" opacity="0.9921568627450981" d="M 402.5 358 L 405 358.5 L 402.5 359 L 402.5 358 Z " /><path fill="rgb(214,188,178)" stroke="rgb(214,188,178)" stroke-width="1" opacity="0.9921568627450981" d="M 406.5 359 L 406 360.5 L 405.5 362 L 405 360.5 L 406.5 359 Z " /><path fill="rgb(214,188,178)" stroke="rgb(214,188,178)" stroke-width="1" opacity="0.9921568627450981" d="M 366.5 371 L 369 371.5 L 366.5 372 L 366.5 371 Z " /><path fill="rgb(214,188,178)" stroke="rgb(214,188,178)" stroke-width="1" opacity="0.9921568627450981" d="M 376.5 371 L 375.5 373 L 376.5 371 Z " /><path fill="rgb(214,188,178)" stroke="rgb(214,188,178)" stroke-width="1" opacity="0.9921568627450981" d="M 389.5 372 L 390 374 L 388 373.5 L 389.5 372 Z " /><path fill="rgb(52,35,31)" stroke="rgb(52,35,31)" stroke-width="1" opacity="0.984313725490196" d="M 367.5 23 L 376 24 L 376.5 26 L 380 25 Q 378.8 28 382.5 27 L 382.5 25 Q 387.9 24.1 390 26.5 L 389.5 28 L 392 28.5 L 391 30.5 Q 394 31.5 393 36.5 L 391.5 36 L 388.5 35 L 388 36.5 L 392 41.5 L 390.5 42 L 385.5 38 L 388 41.5 L 389 43.5 L 387.5 43 L 384.5 42 L 383.5 43 L 379.5 39 Q 375.8 38.3 375 40.5 L 377 45 L 370 40.5 L 372 34 Q 375 35 374 32 L 368 33 L 368 35 L 366 35 Q 367.1 37.7 364.5 37 L 363 34.5 L 365 34.5 Q 364.3 32.3 366.5 33 L 366.5 31 L 368 31.5 Q 369.5 27.1 366.5 28 L 357 34.5 L 358 38.5 L 355.5 37 L 354 38.5 L 355.5 41 L 350.5 41 L 348.5 43 Q 341.7 42.1 339 44 Q 337.9 46.7 340.5 46 L 340.5 47 L 339 47.5 L 340 49.5 Q 333.9 54.4 331 62.5 L 328 71.5 L 327 83 L 338.5 85 L 342 88.5 Q 344.8 91.5 344 97 Q 339.4 98.3 338 95.5 Q 339.2 90.9 334 93 L 334 98.5 L 335.5 99 L 334.5 101 Q 331.9 101.7 333 99 L 330 99 Q 328.3 103.5 329 111.5 L 331 118.5 L 336 127.5 L 339 138.5 L 343 143.5 L 344 150 Q 337.4 151.1 334 156.5 L 327 174.5 L 326 190.5 L 328 197.5 L 335 207.5 L 330 210.5 L 328.5 216 L 327 215.5 Q 328.7 224.2 324.5 227 L 316.5 230 L 309.5 230 L 302 236.5 L 300.5 239 L 278 255.5 L 275.5 259 L 276 257.5 L 276 254.5 L 279 248.5 L 278 245.5 L 279 241.5 L 284.5 234 Q 289.1 232.7 287 238.5 L 288.5 238 L 290 237.5 L 288 233.5 L 290.5 230 L 294 227.5 Q 294.8 224.9 291.5 226 L 290 226.5 L 293 223.5 L 293 221.5 L 295.5 218 Q 298.5 218.9 297 214.5 L 298 208 L 300 207.5 L 299 205.5 L 300 205.5 L 300.5 207 L 301 203.5 L 299 193.5 L 300 190.5 L 300 186.5 L 301 184.5 L 300 181.5 L 301 181.5 L 301.5 184 L 302 181 Q 304.7 179.9 304 182.5 L 306 181.5 L 308 170.5 L 309.5 169 L 310.5 173 L 311 168.5 L 310.5 167 L 313.5 172 L 315 169.5 L 313 165.5 L 314 161.5 L 314 159.5 Q 317.1 154.1 317 145.5 L 316 145.5 L 314.5 148 L 314 139.5 Q 317.8 137.8 314.5 136 Q 312.3 135.3 313 137.5 L 311 142 L 306 139.5 Q 305.3 133.4 307 131 L 310 129.5 L 310 120.5 L 308 110.5 L 313 90.5 L 313 88.5 Q 312 84 314.5 83 Q 317.1 83.8 316 80.5 L 315.5 79 L 317 78.5 L 316 76.5 L 321 63.5 L 338 39 Q 340.7 40.1 340 37.5 L 343 36.5 Q 341.9 33.2 344.5 34 L 361.5 24 Q 366.3 25.3 367.5 23 Z M 373 27 L 370 28 L 371 30 L 376 28 L 373 27 Z M 348 34 L 343 38 L 344 39 L 348 36 L 348 34 Z M 326 84 Q 325 88 329 89 L 334 88 L 326 84 Z M 323 89 L 320 92 Q 321 94 318 93 L 317 98 L 318 100 L 323 91 L 323 89 Z M 317 100 L 316 103 L 317 103 L 317 100 Z M 323 102 L 322 109 L 323 109 L 323 102 Z M 316 106 L 313 113 L 314 116 L 314 127 L 316 127 L 318 132 L 322 135 L 321 131 Q 322 127 320 128 Q 315 120 316 106 Z M 324 123 L 324 130 L 325 130 Q 326 125 324 123 Z M 321 169 L 318 170 L 319 175 L 322 173 Q 323 168 321 169 Z M 313 183 L 313 190 L 315 190 L 313 183 Z M 305 185 L 304 188 L 305 188 L 305 185 Z M 317 189 L 315 191 L 316 193 L 316 192 L 317 192 L 316 194 L 320 196 L 321 196 L 317 189 Z M 301 225 L 298 227 L 301 227 L 302 229 L 304 226 L 301 225 Z " /><path fill="rgb(52,35,31)" stroke="rgb(52,35,31)" stroke-width="1" opacity="0.984313725490196" d="M 397.5 26 L 400 26.5 L 397.5 27 L 397.5 26 Z " /><path fill="rgb(52,35,31)" stroke="rgb(52,35,31)" stroke-width="1" opacity="0.984313725490196" d="M 401.5 27 L 402.5 29 Q 399.7 29.7 401.5 27 Z " /><path fill="rgb(52,35,31)" stroke="rgb(52,35,31)" stroke-width="1" opacity="0.984313725490196" d="M 395.5 29 L 399.5 31 L 401 30.5 L 400 32.5 L 404 33.5 L 403 36 L 399.5 37 L 400 35.5 Q 400.5 31.5 397.5 31 L 395.5 29 Z " /><path fill="rgb(52,35,31)" stroke="rgb(52,35,31)" stroke-width="1" opacity="0.984313725490196" d="M 395.5 36 L 396.5 38 Q 393.7 38.7 395.5 36 Z " /><path fill="rgb(52,35,31)" stroke="rgb(52,35,31)" stroke-width="1" opacity="0.984313725490196" d="M 413.5 41 L 417 44.5 L 417 46.5 L 415.5 57 L 413.5 54 L 412.5 56 L 411.5 54 L 411 57 Q 408.3 58.1 409 55.5 L 405 52.5 L 406 50.5 Q 400.8 48.2 404.5 46 L 407.5 48 L 408 46.5 L 405.5 43 L 409 44 Q 407.7 40.7 412.5 42 L 413.5 41 Z " /><path fill="rgb(52,35,31)" stroke="rgb(52,35,31)" stroke-width="1" opacity="0.984313725490196" d="M 383.5 45 L 386.5 49 L 383 46.5 L 383.5 45 Z " /><path fill="rgb(52,35,31)" stroke="rgb(52,35,31)" stroke-width="1" opacity="0.984313725490196" d="M 421.5 50 Q 423.8 49.3 423 51.5 L 421.5 50 Z " /><path fill="rgb(52,35,31)" stroke="rgb(52,35,31)" stroke-width="1" opacity="0.984313725490196" d="M 424.5 54 L 429 61.5 L 431 73.5 L 433 75.5 L 432 77.5 L 434 84.5 L 434 91.5 L 432 90.5 Q 433.5 86.1 430.5 87 L 431 88.5 Q 430 93 432.5 94 L 434 94.5 Q 431.5 96 433 101.5 Q 436.8 103.4 435 110 Q 437.7 108.9 437 111.5 L 438 113.5 L 437 113.5 L 435.5 111 L 435 113.5 Q 438.6 114.9 438.5 120 L 439.5 118 L 440 119.5 L 439 121.5 L 441 125.5 L 440 130 Q 443.5 128.9 442 136.5 L 440 143.5 L 441 148 L 445 150.5 L 447 156 Q 450 154.8 449 158.5 L 452 165.5 L 451 167.5 L 453 169.5 L 456 181.5 L 459 185.5 L 455 182.5 L 454.5 180 L 453 180.5 L 449.5 174 L 446 171.5 L 445 168 L 441 166.5 L 439.5 164 L 437 164 L 437 166 Q 434.3 164.9 435 167.5 L 427.5 177 L 425.5 176 L 424.5 178 L 423 170.5 L 424 166.5 L 422 166.5 Q 421.3 164.3 423.5 165 L 425 165.5 Q 425.2 157.2 429 152.5 L 426 152 L 425 158 Q 421.2 157 420 159.5 Q 422.3 160.8 419.5 162 L 418.5 160 Q 419.4 166.9 416.5 170 L 416 168 Q 412.7 166.7 414 171.5 L 412 178.5 L 414.5 182 L 415.5 178 L 418 178.5 L 416 186.5 L 409 198.5 L 405 202.5 L 402 211 Q 398.7 209.9 400 214 L 396.5 214 L 397 215.5 L 395 222.5 L 395 227.5 Q 397.3 228.8 396 233.5 Q 392.6 236.3 394 243 L 398 242 Q 400 256.3 394 263.5 L 394 265.5 L 393 271.5 L 387.5 280 Q 381.4 281.3 382 278.5 L 385 272.5 L 385 267 L 387.5 268 L 388 265.5 Q 386.8 263 383 264 L 382.5 266 L 380.5 265 L 378 266 L 378 268 L 374 270 L 374 274 L 372.5 274 L 371 270 L 367 270 Q 368.1 272.7 365.5 272 L 364.5 271 L 361.5 274 L 359 275.5 L 358.5 277 L 357 276.5 L 356.5 279 L 355.5 277 L 354.5 279 L 353 275.5 L 354 269 L 349.5 271 L 350 269.5 L 351 262.5 L 353 259.5 L 354 250.5 L 351 252.5 L 350.5 254 L 349.5 252 L 344.5 259 Q 342.3 258.3 343 260.5 L 341.5 263 L 341 261.5 L 342 259.5 L 341 257 Q 338.3 255.9 339 258.5 L 338 258.5 L 340 250.5 L 339.5 249 Q 342.1 249.8 341 246.5 L 342 244 L 337.5 247 L 342 241.5 L 345.5 237 L 349 235.5 L 348 233.5 L 354 225.5 L 354 220 L 357 218.5 Q 360.9 214.4 360 205.5 L 369.5 193 L 372.5 191 L 374 190.5 L 376 198.5 L 378.5 201 L 379 195.5 L 376 192.5 L 374 185.5 L 378 180.5 L 380 169.5 L 382.5 166 Q 385.4 167.6 384.5 173 L 385.5 170 L 386 172 L 389.5 174 L 390 167.5 L 389 165 L 394 168.5 L 395.5 174 L 397 170.5 L 393 161.5 L 395 160.5 L 391.5 154 L 389.5 157 L 384.5 153 L 384 154.5 L 388 159.5 L 388 162.5 Q 386.5 165.5 385 162.5 L 381.5 157 L 380 157.5 L 379 154 L 377 153.5 L 381.5 146 L 387.5 142 L 388 143.5 L 387.5 145 L 393 141.5 L 400 128.5 L 401 123.5 L 399 113.5 L 401 114.5 L 406 127.5 L 408.5 130 L 409 127.5 L 403 113.5 L 404 111.5 L 399 104.5 L 401 105.5 Q 400.3 107.8 402.5 107 L 408.5 114 L 410 113.5 L 406 102.5 L 408.5 104 L 410 103.5 L 404 93.5 L 406 92.5 L 404 87 L 407 85.5 L 407.5 83 L 408.5 85 L 409 79 L 411.5 80 L 413.5 75 L 415.5 84 L 416.5 82 L 417 84 Q 419.7 82.9 419 85.5 L 420 85.5 L 419 77.5 L 416 73 L 418.5 72 L 419 76 Q 421.7 77.1 421 74.5 L 420 70.5 L 421 70.5 L 423.5 76 L 424 68.5 L 423.5 67 Q 425.8 66.3 425 68.5 L 427.5 73 L 428 70.5 L 426 64.5 Q 428.5 63 425 61.5 L 424.5 54 Z M 422 77 L 420 80 L 422 79 L 422 77 Z M 426 88 L 425 93 L 426 93 L 426 88 Z M 428 93 Q 425 98 429 97 L 428 93 Z M 421 94 L 417 98 L 418 102 L 416 102 L 417 105 Q 416 108 419 107 Q 418 115 421 121 Q 424 114 424 104 L 425 112 L 424 114 L 425 116 L 425 125 L 424 126 L 425 132 L 427 126 L 427 113 L 427 111 L 426 104 L 428 104 L 425 98 L 424 101 L 422 97 Q 423 93 421 94 Z M 429 105 L 428 108 L 429 108 L 429 105 Z M 432 108 L 430 113 L 432 120 L 433 120 L 432 116 L 433 112 L 432 108 Z M 405 113 L 404 115 L 407 119 L 409 119 L 405 113 Z M 435 114 L 434 117 L 435 117 L 435 114 Z M 436 118 L 435 122 L 437 121 L 436 118 Z M 403 121 L 401 123 L 403 123 L 403 121 Z M 420 121 L 419 125 L 420 125 L 420 121 Z M 438 125 L 437 127 L 437 129 L 437 137 L 434 142 Q 435 144 433 143 L 433 145 L 432 149 L 433 153 Q 432 155 435 154 Q 439 149 439 142 L 436 141 L 439 139 Q 440 129 438 125 Z M 419 127 L 420 129 Q 421 126 419 127 Z M 424 132 L 421 139 L 422 147 L 424 140 L 424 132 Z M 406 138 L 405 142 L 404 142 Q 399 144 402 146 Q 403 148 400 147 L 399 150 L 401 155 Q 400 158 403 157 L 404 159 L 404 157 Q 406 158 408 155 L 409 156 L 409 153 Q 411 151 408 150 Q 407 145 409 144 L 406 138 Z M 414 139 L 413 142 L 414 142 L 414 139 Z M 416 148 L 417 157 L 418 157 Q 419 150 416 148 Z M 383 151 Q 381 154 384 153 L 383 151 Z M 429 160 L 428 163 L 429 163 L 429 160 Z M 400 170 L 400 175 L 398 180 L 397 178 Q 395 184 390 188 L 390 189 L 394 189 L 395 186 L 397 185 L 396 189 Q 401 190 404 186 Q 405 183 402 184 Q 403 180 400 179 L 402 174 Q 403 169 400 170 Z M 386 173 L 386 181 L 387 181 L 386 173 Z M 385 180 L 382 183 L 382 188 L 379 193 L 382 198 L 384 195 L 386 186 L 386 184 L 385 180 Z M 411 180 L 406 188 L 408 190 L 412 183 L 411 180 Z M 402 190 L 400 192 L 400 202 L 402 203 L 401 199 L 403 195 Q 405 189 402 190 Z M 398 197 L 394 202 Q 392 205 391 201 L 389 205 L 389 208 L 395 214 Q 398 211 397 204 L 399 204 Q 400 198 398 197 Z M 370 202 L 368 204 Q 370 210 367 212 Q 369 219 374 224 L 377 225 L 374 218 L 376 211 L 373 210 L 373 212 L 371 211 Q 372 205 370 202 Z M 387 207 L 387 210 L 388 210 Q 389 206 387 207 Z M 389 210 L 388 213 L 389 213 L 389 210 Z M 365 219 L 364 225 L 366 226 Q 367 221 365 219 Z M 382 223 L 379 224 L 379 235 L 378 237 Q 374 238 377 240 L 377 241 L 376 239 L 375 241 L 374 241 Q 375 237 372 238 L 368 244 L 372 244 L 373 244 Q 370 244 370 249 L 374 250 Q 375 246 377 249 L 377 247 L 375 247 L 376 243 L 379 243 Q 378 246 381 245 L 380 244 L 381 242 L 380 240 L 382 235 Q 385 234 387 237 L 390 232 L 389 232 L 387 232 L 389 229 L 388 229 L 387 227 L 384 228 L 381 228 L 383 225 Q 384 222 382 223 Z M 364 228 L 361 230 L 359 233 L 359 234 L 361 233 Q 360 229 364 231 L 364 228 Z M 363 233 L 360 237 Q 358 238 361 239 L 363 236 L 363 233 Z M 391 242 L 388 247 Q 385 246 386 249 L 386 250 L 389 249 L 392 245 L 391 242 Z M 367 244 L 364 246 L 364 247 Q 368 247 368 245 L 367 244 Z M 363 250 L 363 252 L 361 251 L 360 253 L 358 253 L 359 256 L 358 262 L 362 262 L 362 261 L 363 258 L 366 259 Q 371 260 373 257 L 373 252 L 371 253 L 369 250 L 367 251 L 363 250 Z M 389 257 L 388 263 L 389 263 L 389 257 Z " /><path fill="rgb(52,35,31)" stroke="rgb(52,35,31)" stroke-width="1" opacity="0.984313725490196" d="M 387.5 56 L 390 62.5 L 389 62.5 L 387.5 56 Z " /><path fill="rgb(52,35,31)" stroke="rgb(52,35,31)" stroke-width="1" opacity="0.984313725490196" d="M 390.5 64 L 391 66.5 L 390 66.5 L 390.5 64 Z " /><path fill="rgb(52,35,31)" stroke="rgb(52,35,31)" stroke-width="1" opacity="0.984313725490196" d="M 408.5 74 L 409 77.5 L 408 77.5 L 408.5 74 Z " /><path fill="rgb(52,35,31)" stroke="rgb(52,35,31)" stroke-width="1" opacity="0.984313725490196" d="M 362.5 81 L 365 81.5 L 355.5 87 Q 352.5 85.5 355.5 84 L 362.5 81 Z " /><path fill="rgb(52,35,31)" stroke="rgb(52,35,31)" stroke-width="1" opacity="0.984313725490196" d="M 365.5 87 L 378.5 88 L 382 90.5 L 378.5 93 L 376.5 92 Q 375.8 94.8 371.5 94 L 369.5 90 L 364.5 93 L 365 91.5 Q 364.3 89.3 366.5 90 L 366.5 89 L 362.5 91 L 362 89.5 L 365.5 87 Z M 372 91 L 372 93 L 374 92 L 372 91 Z " /><path fill="rgb(52,35,31)" stroke="rgb(52,35,31)" stroke-width="1" opacity="0.984313725490196" d="M 395.5 104 L 398 121 Q 395.3 122.1 396 119.5 Q 393 118.5 394 113.5 L 395 110.5 L 395.5 104 Z " /><path fill="rgb(52,35,31)" stroke="rgb(52,35,31)" stroke-width="1" opacity="0.984313725490196" d="M 351.5 118 L 356 119.5 L 349.5 120 L 349.5 119 L 351.5 118 Z " /><path fill="rgb(52,35,31)" stroke="rgb(52,35,31)" stroke-width="1" opacity="0.984313725490196" d="M 343 120 L 348 121 Q 349.8 125.5 344.5 124 L 343 120 Z " /><path fill="rgb(52,35,31)" stroke="rgb(52,35,31)" stroke-width="1" opacity="0.984313725490196" d="M 346.5 130 L 352 132.5 L 343.5 133 L 342.5 131 L 346.5 130 Z " /><path fill="rgb(52,35,31)" stroke="rgb(52,35,31)" stroke-width="1" opacity="0.984313725490196" d="M 372.5 154 L 375 154.5 L 366.5 161 L 358.5 162 L 354.5 161 L 350 157.5 L 352.5 157 Q 354 159.5 359.5 158 L 372.5 154 Z " /><path fill="rgb(52,35,31)" stroke="rgb(52,35,31)" stroke-width="1" opacity="0.984313725490196" d="M 311.5 159 L 312 160.5 L 308.5 167 L 308 164.5 L 311.5 159 Z " /><path fill="rgb(52,35,31)" stroke="rgb(52,35,31)" stroke-width="1" opacity="0.984313725490196" d="M 304.5 170 L 305 174.5 L 303 175.5 L 304 172.5 L 304.5 170 Z " /><path fill="rgb(52,35,31)" stroke="rgb(52,35,31)" stroke-width="1" opacity="0.984313725490196" d="M 297.5 178 L 298 188.5 L 297 188.5 L 296 180.5 L 297.5 178 Z " /><path fill="rgb(52,35,31)" stroke="rgb(52,35,31)" stroke-width="1" opacity="0.984313725490196" d="M 91.5 188 L 101.5 188 L 102.5 189 L 176.5 189 L 180 191 L 180 193.5 L 185 201.5 L 185 205.5 L 190 216.5 L 191 223.5 L 211 280.5 L 212 287.5 L 219 303.5 L 221 313.5 L 228.5 330 L 239.5 332 L 243.5 334 L 245.5 334 L 251 333.5 L 247 333 Q 245.2 328.1 251.5 330 L 249 326.5 Q 249.8 324.3 247.5 325 L 248.5 323 L 251 322.5 L 250 320 L 262 322 Q 263.3 325.3 258.5 324 L 252 325.5 L 253.5 327 L 259.5 328 L 260.5 327 L 265.5 332 L 267.5 333 L 270.5 332 L 278.5 334 L 281.5 332 L 282 333.5 L 281 336 L 278.5 335 L 265.5 335 L 261.5 336 Q 258.2 333.3 251.5 334 L 251.5 335 L 269 340.5 L 265.5 341 L 263.5 341 L 262 341.5 L 264 342.5 L 261.5 343 L 260.5 342 L 252.5 342 L 237.5 339 L 230 339 L 232 342.5 L 231 346 L 254.5 348 L 255.5 349 L 257.5 349 L 270 350 L 270 348 L 275 348 L 274 350.5 Q 281.9 350.1 286.5 353 L 297.5 353 L 303.5 355 L 329.5 358 L 330.5 359 L 359 361 L 357.5 365 L 352.5 365 L 345.5 367 L 343.5 369 L 335.5 369 L 334.5 370 L 332.5 370 L 329 370.5 L 329.5 372 Q 319.9 370.9 315 374.5 L 315.5 376 Q 314.3 373.7 309.5 375 L 305 376.5 L 305.5 378 Q 300.8 376.8 299.5 379 L 298.5 377 L 298 379 L 292 380 L 290.5 383 L 285.5 384 L 282.5 383 L 282.5 385 L 281 385.5 L 283.5 387 L 286 386 L 287.5 389 L 295.5 391 L 297.5 391 L 306 392 L 307.5 395 L 313 396 Q 311.5 399.8 314.5 399 L 314 397.5 Q 313.1 394.1 318.5 396 Q 320 399.5 321.5 397 L 324 397.5 L 320.5 399 L 319 398.5 Q 318.1 401.9 323.5 400 L 342.5 404 L 403.5 406 L 408 404 L 409 400 L 412 398.5 L 413.5 396 L 413 397.5 L 408.5 408 L 275.5 408 L 275 405.5 L 276 404.5 L 277 391 L 255.5 386 L 242.5 386 L 241 384.5 L 239 375.5 L 240 373.5 L 229.5 366 L 204.5 355 L 190.5 347 L 175.5 344 L 166.5 338 L 148 329.5 L 150.5 329 L 155.5 331 L 157 328 L 155 328 Q 156.1 325.3 153.5 326 L 135.5 321 L 133 318.5 L 130 312.5 L 129 305.5 L 125 297.5 L 124 290.5 L 120 282.5 L 119 276.5 L 90 192.5 L 90 189.5 L 91.5 188 Z M 154 315 L 154 318 L 162 330 L 169 336 Q 172 335 170 339 L 178 340 L 170 325 L 165 324 L 165 322 L 162 318 Q 160 313 154 315 Z M 196 341 L 194 343 Q 193 347 197 345 L 196 341 Z M 303 393 L 300 394 L 301 396 L 304 395 L 305 396 Q 306 392 303 393 Z M 316 398 Q 315 401 318 400 Q 319 397 316 398 Z " /><path fill="rgb(52,35,31)" stroke="rgb(52,35,31)" stroke-width="1" opacity="0.984313725490196" d="M 322.5 260 L 319.5 264 L 318 263.5 L 322.5 260 Z " /><path fill="rgb(52,35,31)" stroke="rgb(52,35,31)" stroke-width="1" opacity="0.984313725490196" d="M 315.5 265 L 317 265.5 L 314.5 267 L 315.5 265 Z " /><path fill="rgb(52,35,31)" stroke="rgb(52,35,31)" stroke-width="1" opacity="0.984313725490196" d="M 337.5 269 L 338 273.5 Q 333.8 276.4 333 282 Q 330 283 331 280 Q 333.7 281.1 333 278.5 L 337.5 269 Z " /><path fill="rgb(52,35,31)" stroke="rgb(52,35,31)" stroke-width="1" opacity="0.984313725490196" d="M 237.5 310 Q 240.8 308.9 240 311.5 L 237.5 315 Q 232.5 312.5 237.5 310 Z " /><path fill="rgb(52,35,31)" stroke="rgb(52,35,31)" stroke-width="1" opacity="0.984313725490196" d="M 270.5 343 L 273 343.5 L 270.5 344 L 270.5 343 Z " /><path fill="rgb(52,35,31)" stroke="rgb(52,35,31)" stroke-width="1" opacity="0.984313725490196" d="M 247.5 344 L 250 344.5 L 247.5 345 L 247.5 344 Z " /><path fill="rgb(52,35,31)" stroke="rgb(52,35,31)" stroke-width="1" opacity="0.984313725490196" d="M 287.5 349 L 286.5 351 L 287.5 349 Z " /><path fill="rgb(52,35,31)" stroke="rgb(52,35,31)" stroke-width="1" opacity="0.984313725490196" d="M 320.5 352 L 322 352.5 L 319.5 354 L 320.5 352 Z " /><path fill="rgb(52,35,31)" stroke="rgb(52,35,31)" stroke-width="1" opacity="0.984313725490196" d="M 335.5 354 L 334.5 356 L 333 355.5 L 335.5 354 Z " /><path fill="rgb(52,35,31)" stroke="rgb(52,35,31)" stroke-width="1" opacity="0.984313725490196" d="M 317.5 355 L 320 355.5 L 317.5 356 L 317.5 355 Z " /><path fill="rgb(111,82,74)" stroke="rgb(111,82,74)" stroke-width="1" opacity="0.9254901960784314" d="M 388.5 23 L 398 25.5 L 397.5 27 L 401 27 Q 399.9 29.7 402.5 29 Q 404 26.5 405.5 30 L 413 34 L 424 48.5 L 429 60.5 L 427 59.5 L 424.5 54 L 424 57.5 L 427 63.5 L 427 65.5 L 428 72.5 L 427 72.5 L 425 67 L 423 67.5 Q 425.8 69.3 424 75.5 L 422 74.5 L 420.5 70 L 420 73.5 L 421 76 Q 417.7 77.3 419 72.5 L 417.5 73 Q 415.3 72.3 416 74.5 L 419 77.5 L 420 85.5 L 419 85.5 L 417 82.5 L 416 82.5 L 415.5 84 L 413.5 75 L 411.5 80 L 409 79 L 408.5 85 L 407.5 83 L 405.5 87 Q 403.3 86.3 404 88.5 L 406 92.5 L 404 93.5 L 411 104.5 L 409.5 104 L 406.5 102 L 406 103.5 L 408 105.5 L 410 113.5 L 408.5 114 L 402.5 107 Q 400.3 107.8 401 105.5 L 399 104.5 L 409 118.5 L 407 119 L 404.5 115 L 404 117.5 L 410 130.5 L 406 127.5 Q 404.4 118.6 399.5 113 L 399 116.5 L 400.5 123 L 403 121.5 Q 403.7 124.1 401 123 L 401 125.5 L 390.5 144 L 387.5 145 L 388 143.5 L 387.5 142 L 379 148.5 Q 379.8 152.8 377 153.5 L 379 154 L 380.5 158 L 382 157.5 L 386.5 164 Q 388.8 163.3 388 159.5 L 384 153 Q 381.3 154.1 382 151.5 L 386.5 155 L 389.5 157 L 391.5 154 L 395 160.5 L 393 161.5 L 397 171.5 L 395.5 174 Q 395 167.5 390.5 165 Q 388.3 164.3 389 166.5 Q 391.5 168 390 173.5 L 387.5 172 Q 385.3 172.8 386 170.5 L 385 170.5 L 387 180.5 L 386 180.5 L 384 167.5 L 382.5 166 L 380 169.5 L 378 180.5 L 374 185.5 L 375 190.5 L 379 195.5 L 379 200.5 L 376 198.5 L 373.5 190 L 371 191 Q 372.1 193.7 369.5 193 L 360 205.5 L 359 215.5 L 355.5 220 Q 352.8 219.4 354 225.5 L 348 234.5 L 348.5 236 L 342.5 240 Q 340.8 237.3 339 241.5 L 339.5 243 L 342 241.5 L 340.5 244 L 343 242.5 L 343.5 241 L 344 242.5 Q 340.4 244.4 341 249 L 339 249.5 L 340 251.5 L 339 257 Q 341.7 255.9 341 258.5 L 342.5 261 L 343 259 L 347 256.5 L 349.5 252 L 350.5 254 L 353.5 250 L 354 254.5 L 351 262.5 L 351 267.5 L 354 269 L 353 275.5 L 354.5 279 L 355.5 277 L 356.5 279 L 357.5 276 L 359 276.5 L 360.5 274 L 364.5 271 L 367 272 Q 365.8 268.3 371 270 L 372.5 274 L 374.5 275 L 377 273.5 L 374 273 L 374 270 L 376 270 L 376 268 L 378 268 Q 376.9 265.3 379.5 266 L 381.5 265 L 383 265.5 Q 382.1 262.5 386.5 264 L 388 267.5 L 386.5 267 Q 383.8 266.4 385 272.5 L 382 280 Q 387.4 281.5 389 278.5 L 395 264.5 Q 392.5 263 396 261.5 L 398 254.5 L 398 242 L 394 243 L 396 228.5 Q 393.8 227.3 395 222.5 L 397 215.5 L 396.5 214 L 400 214 L 400 211 Q 403 212.3 402 208.5 L 416 186.5 L 418 178.5 L 415 178.5 L 414.5 182 Q 411.4 180.6 412 175.5 L 414 168 Q 416.7 166.9 416 169.5 L 417 169.5 L 418.5 160 L 419.5 162 L 421.5 158 Q 426.8 159.8 425 154.5 L 426 152 L 429 152.5 Q 424.5 159 424 169.5 L 426 172.5 L 425 172.5 L 423.5 170 L 423 171.5 L 424.5 178 L 425.5 176 L 427.5 177 Q 433.1 172.9 435 166 Q 438 167 437 164 L 439.5 164 L 442.5 168 Q 445.8 166.9 445 169.5 L 448.5 174 L 451 175.5 L 453.5 181 L 455 180.5 L 456.5 184 L 457 182.5 L 453 170.5 L 454 170.5 Q 455.3 177.7 460 181.5 L 461 188.5 L 470 205.5 Q 469.2 210.8 472 212.5 L 472 231.5 L 465.5 253 L 465 250.5 L 467 243.5 L 466.5 242 Q 469.1 242.8 468 239.5 L 470 235.5 L 471 227.5 Q 465.5 215.5 464 199.5 L 460 192.5 L 460 189.5 L 451 180.5 Q 450.6 175 446.5 173 Q 444.3 173.8 445 171.5 L 439.5 168 L 437.5 169 Q 436.2 166.8 435 169.5 L 428.5 179 L 420 184 L 419 187.5 L 407 201.5 L 403 209.5 L 403 213 Q 400.3 211.9 401 214.5 L 399 224.5 L 399 254.5 L 388.5 285 L 387.5 283 L 385.5 284 L 382.5 282 L 380 283 Q 378.9 275.7 383 272.5 L 381 272 L 380.5 270 L 379 274 L 377 274 Q 378.1 276.7 375.5 276 L 372 281 L 367 284.5 L 365.5 289 L 365 283.5 L 365 281.5 Q 365.8 278.9 362.5 280 L 358.5 279 L 354.5 286 L 353 280 Q 349.7 281.3 351 276.5 L 352 272.5 L 350 273.5 L 345.5 280 Q 343.3 279.3 344 281.5 L 343 285 Q 340.3 283.9 341 286.5 L 339 287.5 L 338 285.5 L 340 281 L 330 285 L 329 273 L 332 273 Q 330.5 269.2 333.5 270 L 335 266.5 L 335 264.5 L 338 255 L 334.5 257 L 335 255.5 L 338 249.5 L 336.5 249 L 328 255.5 L 320.5 265 L 318 266.5 L 315.5 270 L 312 272.5 Q 312.8 274.8 310.5 274 L 308 275.5 L 312.5 270 L 306.5 274 L 302.5 274 L 302.5 273 L 304.5 273 L 314.5 265 L 314.5 267 L 317 265.5 L 316.5 264 Q 320.3 264.8 321 262.5 L 320 261.5 L 329 252.5 L 330.5 250 L 333 248.5 L 344.5 231 L 347 229.5 Q 348.3 223.7 353 221.5 L 355 215 Q 357.7 216.1 357 213.5 L 357.5 210 L 355 209.5 L 357 209 L 357 203.5 L 363.5 195 L 364 196.5 L 363.5 198 Q 365.8 198.8 365 196.5 L 367 192.5 L 365 192.5 L 371 186.5 L 371 184.5 L 369 177.5 L 370 177.5 L 372 184 L 375 182.5 L 374 180.5 L 379 171.5 Q 378.3 165.8 381 163.5 L 380 159 L 373 164.5 L 369.5 173 L 369 169.5 L 375 159 Q 377.7 160.1 377 157.5 L 378 155 Q 373.7 154.2 372.5 158 L 374.5 154 L 359.5 158 L 353.5 158 L 350.5 157 L 350.5 158 Q 353.7 162.3 361.5 162 L 366.5 161 L 370.5 158 L 369.5 160 L 361.5 165 L 359.5 164 L 356.5 165 L 350 162 L 348 157 L 345 155.5 Q 346.1 152.2 343.5 153 L 343.5 151 L 342 150.5 L 344 150 L 343 143.5 L 339 138.5 Q 336.4 125.1 330 115.5 L 329 103.5 L 330 99 L 333 99 Q 331.9 101.7 334.5 101 L 335.5 99 L 334 98.5 L 334 93 Q 339.2 90.9 338 95.5 Q 339.4 98.3 344 97 L 344 92.5 L 338.5 85 L 327 83 L 327.5 78 L 328 82 L 335.5 84 L 337.5 84 L 339.5 84 L 344 88.5 L 345 97.5 L 342.5 101 L 337.5 103 L 332.5 103 L 330 105.5 Q 330.4 114.3 334 119 L 338.5 122 Q 342.8 120.2 340 118.5 L 340.5 116 Q 341.9 119.6 347.5 119 L 350.5 118 L 350.5 119 L 349 119.5 L 355.5 120 L 355.5 119 L 353 118.5 L 358 118 L 356.5 121 L 352.5 122 L 347 126 L 348.5 129 L 364.5 130 L 369.5 128 L 368.5 130 L 362.5 133 L 346 134 L 347 138 L 354.5 139 L 358 138 L 358 142 L 356.5 142 L 346 146.5 L 346 148.5 L 350.5 153 L 358.5 155 L 360.5 155 L 366.5 153 L 379 144.5 Q 378.3 142.3 380.5 143 L 389 136.5 L 392 128.5 L 391 125.5 L 392 124.5 L 388 120.5 L 388 117.5 L 392 109.5 L 392 99.5 L 389 91 L 379 94 L 376.5 98 L 368.5 100 L 365 98.5 L 368 98 Q 366.8 95 370.5 96 L 370.5 95 L 369 95 Q 370.5 91.3 367.5 92 L 365 93 Q 366.1 95.7 363.5 95 L 361 96 Q 362.3 93 358.5 94 Q 352.6 91.2 353 83 L 356.5 83 L 364.5 79 L 373.5 79 L 373.5 80 Q 367.8 80.3 365 83.5 L 387 88 Q 389.9 85.1 389 77.5 L 383 60.5 L 375 50.5 L 375 48 L 371 45.5 Q 371.8 43.3 369.5 44 L 366.5 38 L 366 41 L 359.5 43 L 350.5 44 Q 348.6 47.7 343.5 48 L 334.5 57 L 336 54.5 L 340 48.5 L 339.5 47 L 341 46.5 L 339 46 Q 337.9 43.3 340.5 44 L 356 40.5 Q 352.3 38.7 355.5 37 L 357 37.5 Q 356.3 33.8 358.5 33 L 368 28 Q 369 31.8 366.5 33 Q 364.3 32.3 365 34.5 L 363 34.5 L 364.5 37 Q 367.1 37.7 366 35 L 368 35 L 368 33 L 370.5 33 L 374 32 Q 375 35 372 34 L 372 36.5 L 370 40.5 L 377 45 L 375 40.5 Q 375.8 38.3 379.5 39 L 383.5 43 L 385.5 43 Q 388.8 44.1 388 41.5 L 385.5 38 L 391.5 42 L 389 38.5 L 388 35.5 L 389.5 36 L 392.5 37 L 393 32.5 L 391 29.5 L 391.5 28 L 389 27.5 L 389.5 26 L 385 24.5 L 388.5 23 Z M 396 29 L 400 33 L 401 31 L 400 31 L 396 29 Z M 400 33 Q 399 38 403 36 L 404 34 L 400 33 Z M 396 36 Q 394 39 397 38 L 396 36 Z M 414 41 L 413 42 Q 408 41 409 44 L 407 43 L 405 44 L 408 48 L 409 49 L 406 47 Q 404 45 403 48 L 406 52 L 406 53 L 408 52 Q 406 54 409 56 Q 408 58 411 57 L 412 54 L 413 56 L 414 54 L 416 57 L 417 47 L 417 45 L 414 41 Z M 384 45 L 383 47 L 387 49 L 384 45 Z M 422 50 L 423 52 Q 424 49 422 50 Z M 388 56 L 389 63 L 390 63 L 388 56 Z M 391 64 L 390 67 L 391 67 L 391 64 Z M 409 74 L 408 78 L 409 78 L 409 74 Z M 363 81 L 356 84 Q 353 86 356 87 L 365 82 L 363 81 Z M 366 87 L 364 88 L 362 91 L 365 89 L 367 90 L 365 90 L 366 92 L 370 90 L 372 94 Q 376 95 377 92 L 379 93 L 382 91 L 379 88 L 366 87 Z M 335 94 L 335 97 L 338 98 L 337 96 Q 338 93 335 94 Z M 372 96 L 370 98 L 373 98 L 372 96 Z M 396 104 L 395 111 L 394 114 Q 393 119 396 120 Q 395 122 398 121 L 396 104 Z M 343 120 L 345 124 Q 350 126 348 121 L 343 120 Z M 347 130 L 343 131 L 344 133 L 352 133 L 347 130 Z M 422 165 L 422 167 L 424 166 L 422 165 Z M 360 202 Q 358 205 361 204 L 360 202 Z M 346 232 L 341 238 L 343 238 L 346 234 L 346 232 Z M 349 259 L 346 263 L 343 264 L 339 275 L 335 279 L 336 281 L 343 276 Q 342 273 345 274 Q 349 269 351 261 L 349 259 Z M 351 268 Q 349 271 352 270 L 351 268 Z M 338 269 L 334 276 L 335 278 L 338 274 L 338 269 Z M 369 273 L 367 276 Q 366 279 369 280 L 372 276 L 371 274 L 369 273 Z M 364 274 L 361 277 Q 362 280 366 279 L 365 277 Q 366 273 364 274 Z M 331 276 Q 329 279 332 278 L 331 276 Z M 331 280 Q 330 283 333 282 Q 334 279 331 280 Z " /><path fill="rgb(111,82,74)" stroke="rgb(111,82,74)" stroke-width="1" opacity="0.9254901960784314" d="M 380.5 25 L 383 26.5 L 380 27 L 380.5 25 Z " /><path fill="rgb(111,82,74)" stroke="rgb(111,82,74)" stroke-width="1" opacity="0.9254901960784314" d="M 372.5 27 L 376 27.5 L 370.5 30 L 369.5 28 L 372.5 27 Z " /><path fill="rgb(111,82,74)" stroke="rgb(111,82,74)" stroke-width="1" opacity="0.9254901960784314" d="M 347.5 34 L 348 35.5 L 342.5 40 L 343 38.5 L 342.5 37 L 341 37.5 L 342.5 35 L 343.5 37 L 347.5 34 Z " /><path fill="rgb(111,82,74)" stroke="rgb(111,82,74)" stroke-width="1" opacity="0.9254901960784314" d="M 337.5 40 L 335 43.5 L 327.5 54 L 328 52.5 L 331.5 47 Q 334.1 47.8 333 44.5 L 337.5 40 Z " /><path fill="rgb(111,82,74)" stroke="rgb(111,82,74)" stroke-width="1" opacity="0.9254901960784314" d="M 325.5 57 L 324.5 59 L 325.5 57 Z " /><path fill="rgb(111,82,74)" stroke="rgb(111,82,74)" stroke-width="1" opacity="0.9254901960784314" d="M 332.5 60 L 333 61.5 Q 329.3 67.8 328.5 77 L 328 71.5 L 332.5 60 Z " /><path fill="rgb(111,82,74)" stroke="rgb(111,82,74)" stroke-width="1" opacity="0.9254901960784314" d="M 430.5 65 L 433 74.5 L 431 73.5 L 430.5 65 Z " /><path fill="rgb(111,82,74)" stroke="rgb(111,82,74)" stroke-width="1" opacity="0.9254901960784314" d="M 432 76 Q 435 74.8 434 78.5 L 438 92.5 L 437 94.5 L 438 95.5 L 439 107.5 L 445 126.5 L 446 134.5 L 445 135.5 L 445 146.5 L 446 148.5 L 446 150.5 L 447 152.5 L 445 153 Q 445.8 149.2 442.5 148 Q 439.5 148.9 441 144.5 L 441 142.5 L 442 130 Q 438.7 131.3 440 126.5 L 440 124.5 L 438 116.5 L 435.5 114 L 434.5 117 L 432.5 112 L 432 115.5 L 433 119.5 L 432 119.5 L 430 112.5 L 431.5 108 L 434.5 114 L 435.5 111 L 437 111.5 L 437 110 L 435 109.5 L 435 103.5 Q 431.5 102 433 95.5 L 433.5 94 L 431.5 95 L 431 92.5 L 430 87.5 L 432 87 Q 431 90.8 433.5 92 L 434 84.5 L 432 76 Z " /><path fill="rgb(111,82,74)" stroke="rgb(111,82,74)" stroke-width="1" opacity="0.9254901960784314" d="M 421.5 77 L 422 78.5 L 420 79.5 L 421.5 77 Z " /><path fill="rgb(111,82,74)" stroke="rgb(111,82,74)" stroke-width="1" opacity="0.9254901960784314" d="M 315.5 80 L 316 83 Q 313.3 84.1 314 81.5 L 315.5 80 Z " /><path fill="rgb(111,82,74)" stroke="rgb(111,82,74)" stroke-width="1" opacity="0.9254901960784314" d="M 377.5 81 L 381 82.5 L 379.5 83 L 377.5 81 Z " /><path fill="rgb(111,82,74)" stroke="rgb(111,82,74)" stroke-width="1" opacity="0.9254901960784314" d="M 326 84 L 334 87.5 L 328.5 89 Q 325.3 87.8 326 84 Z " /><path fill="rgb(111,82,74)" stroke="rgb(111,82,74)" stroke-width="1" opacity="0.9254901960784314" d="M 425.5 88 L 426 92.5 L 425 92.5 L 425.5 88 Z " /><path fill="rgb(111,82,74)" stroke="rgb(111,82,74)" stroke-width="1" opacity="0.9254901960784314" d="M 322.5 89 L 323 90.5 L 316.5 103 L 316 100.5 L 318 93 Q 320.7 94.1 320 91.5 L 322.5 89 Z " /><path fill="rgb(111,82,74)" stroke="rgb(111,82,74)" stroke-width="1" opacity="0.9254901960784314" d="M 312.5 90 L 313 92.5 L 310 100.5 L 308.5 110 L 308 100.5 L 312.5 90 Z " /><path fill="rgb(111,82,74)" stroke="rgb(111,82,74)" stroke-width="1" opacity="0.9254901960784314" d="M 372 91 L 374 91.5 L 372 92.5 L 372 91 Z " /><path fill="rgb(111,82,74)" stroke="rgb(111,82,74)" stroke-width="1" opacity="0.9254901960784314" d="M 427.5 93 L 429 97 Q 425.2 98.2 427.5 93 Z " /><path fill="rgb(111,82,74)" stroke="rgb(111,82,74)" stroke-width="1" opacity="0.9254901960784314" d="M 420.5 94 Q 423.1 93.2 422 96.5 L 424 96.5 L 423 100.5 L 424 100.5 L 424.5 98 L 428 103.5 L 426 104 L 427 110.5 L 427 112.5 L 427 125.5 L 424 132.5 L 423 143.5 L 420.5 148 L 421 146.5 L 421 138.5 L 424 131.5 Q 422.5 126 425 124.5 L 425 115.5 L 424 113.5 L 425 111.5 L 423.5 104 L 423 112.5 L 419.5 125 L 419 121.5 L 420 116.5 L 419 115.5 L 419 107 Q 416 108.3 417 104.5 L 416 101.5 L 418 101.5 L 417 97.5 L 420.5 94 Z " /><path fill="rgb(111,82,74)" stroke="rgb(111,82,74)" stroke-width="1" opacity="0.9254901960784314" d="M 322.5 102 L 323 108.5 L 322 108.5 L 322.5 102 Z " /><path fill="rgb(111,82,74)" stroke="rgb(111,82,74)" stroke-width="1" opacity="0.9254901960784314" d="M 428.5 105 L 429 107.5 L 428 107.5 L 428.5 105 Z " /><path fill="rgb(111,82,74)" stroke="rgb(111,82,74)" stroke-width="1" opacity="0.9254901960784314" d="M 315.5 106 Q 314.5 120 319.5 128 Q 322.1 127.2 321 130.5 L 322 134.5 L 318 131.5 L 315.5 127 L 314 126.5 L 314 115.5 L 313 112.5 L 315.5 106 Z " /><path fill="rgb(111,82,74)" stroke="rgb(111,82,74)" stroke-width="1" opacity="0.9254901960784314" d="M 435.5 118 L 437 120.5 L 437 122.5 L 436.5 124 Q 434 122 435.5 118 Z " /><path fill="rgb(111,82,74)" stroke="rgb(111,82,74)" stroke-width="1" opacity="0.9254901960784314" d="M 407.5 120 L 408.5 122 L 407.5 120 Z " /><path fill="rgb(111,82,74)" stroke="rgb(111,82,74)" stroke-width="1" opacity="0.9254901960784314" d="M 323.5 123 Q 325.8 124.8 325 129.5 L 324 129.5 L 323.5 123 Z " /><path fill="rgb(111,82,74)" stroke="rgb(111,82,74)" stroke-width="1" opacity="0.9254901960784314" d="M 437.5 125 Q 440.5 129.5 439 138.5 L 436 140.5 L 439 142 Q 438.5 149.2 434.5 154 Q 432.3 153.3 433 155.5 L 432 155.5 L 433 152.5 L 432 148.5 L 433 144.5 L 432.5 143 Q 434.8 143.8 434 141.5 L 437 136.5 L 437 128.5 L 437 126.5 L 437.5 125 Z " /><path fill="rgb(111,82,74)" stroke="rgb(111,82,74)" stroke-width="1" opacity="0.9254901960784314" d="M 418.5 127 Q 420.8 126.3 420 128.5 L 418.5 127 Z " /><path fill="rgb(111,82,74)" stroke="rgb(111,82,74)" stroke-width="1" opacity="0.9254901960784314" d="M 315.5 135 L 316 137.5 L 314 139.5 L 314.5 148 L 316.5 145 L 317 149.5 L 313 160.5 L 314 164.5 L 313 166.5 L 315 169.5 L 312.5 173 L 313 171.5 L 311.5 168 L 310.5 173 L 309.5 169 L 308 170.5 L 308 174.5 L 304.5 183 L 304 181 Q 301 179.8 302 183.5 L 300 184.5 L 301 179.5 L 298 180.5 L 298 176.5 L 303 169.5 L 312 141.5 L 312 139.5 L 313 136 L 315.5 135 Z M 311 161 L 308 165 L 309 167 L 311 163 L 311 161 Z M 305 170 L 303 174 L 305 175 L 305 170 Z " /><path fill="rgb(111,82,74)" stroke="rgb(111,82,74)" stroke-width="1" opacity="0.9254901960784314" d="M 405.5 138 L 409 143.5 Q 406.8 144.8 408 149.5 Q 411.5 151 409 152.5 L 408.5 156 L 407.5 155 Q 405.8 158.1 404 156.5 L 403.5 159 L 403 157 Q 400 158.3 401 154.5 L 399 149.5 L 400 147 Q 402.7 148.1 402 145.5 Q 399.3 143.8 403.5 142 L 405 142 L 405.5 138 Z " /><path fill="rgb(111,82,74)" stroke="rgb(111,82,74)" stroke-width="1" opacity="0.9254901960784314" d="M 412.5 138 L 414 141.5 L 413 141.5 L 412.5 138 Z " /><path fill="rgb(111,82,74)" stroke="rgb(111,82,74)" stroke-width="1" opacity="0.9254901960784314" d="M 415.5 142 L 414.5 144 L 415.5 142 Z " /><path fill="rgb(111,82,74)" stroke="rgb(111,82,74)" stroke-width="1" opacity="0.9254901960784314" d="M 415.5 148 Q 418.7 150.3 418 156.5 L 417 156.5 L 415.5 148 Z " /><path fill="rgb(111,82,74)" stroke="rgb(111,82,74)" stroke-width="1" opacity="0.9254901960784314" d="M 338.5 152 L 335 156.5 L 333.5 159 L 334 157.5 L 338.5 152 Z " /><path fill="rgb(111,82,74)" stroke="rgb(111,82,74)" stroke-width="1" opacity="0.9254901960784314" d="M 428.5 160 L 429 162.5 L 428 162.5 L 428.5 160 Z " /><path fill="rgb(111,82,74)" stroke="rgb(111,82,74)" stroke-width="1" opacity="0.9254901960784314" d="M 332.5 161 L 333 162.5 L 329.5 169 L 329 167.5 L 332.5 161 Z " /><path fill="rgb(111,82,74)" stroke="rgb(111,82,74)" stroke-width="1" opacity="0.9254901960784314" d="M 320.5 169 Q 323.5 168.1 322 172.5 L 318.5 175 L 318 170 L 320.5 169 Z " /><path fill="rgb(111,82,74)" stroke="rgb(111,82,74)" stroke-width="1" opacity="0.9254901960784314" d="M 328.5 170 L 329 172.5 L 328 172.5 L 328.5 170 Z " /><path fill="rgb(111,82,74)" stroke="rgb(111,82,74)" stroke-width="1" opacity="0.9254901960784314" d="M 400 170 Q 403.3 168.7 402 173.5 L 400 178.5 Q 403 179.8 402 184 Q 404.7 182.9 404 185.5 Q 401.3 189.6 396 189 L 397 184.5 L 395 185.5 L 394 189 L 390 189 L 390 187.5 Q 394.8 184.3 396.5 178 L 397.5 180 L 400 174.5 L 400 170 Z " /><path fill="rgb(111,82,74)" stroke="rgb(111,82,74)" stroke-width="1" opacity="0.9254901960784314" d="M 327.5 174 L 328 177.5 L 327 177.5 L 327.5 174 Z " /><path fill="rgb(111,82,74)" stroke="rgb(111,82,74)" stroke-width="1" opacity="0.9254901960784314" d="M 326.5 180 L 327 190.5 L 326 190.5 L 326.5 180 Z " /><path fill="rgb(111,82,74)" stroke="rgb(111,82,74)" stroke-width="1" opacity="0.9254901960784314" d="M 384.5 180 L 386 183.5 L 386 185.5 L 384 194.5 L 381.5 198 L 379 192.5 L 382 187.5 L 382 182.5 L 384.5 180 Z " /><path fill="rgb(111,82,74)" stroke="rgb(111,82,74)" stroke-width="1" opacity="0.9254901960784314" d="M 410.5 180 L 412 182.5 L 407.5 190 L 406 187.5 L 410.5 180 Z " /><path fill="rgb(111,82,74)" stroke="rgb(111,82,74)" stroke-width="1" opacity="0.9254901960784314" d="M 312.5 183 L 315.5 190 Q 316.8 187.8 318 190.5 L 321 195.5 L 319.5 196 L 315 192.5 L 315 190 Q 312 191.3 313 187.5 L 312.5 183 Z " /><path fill="rgb(111,82,74)" stroke="rgb(111,82,74)" stroke-width="1" opacity="0.9254901960784314" d="M 304.5 185 L 305 187.5 L 304 187.5 L 304.5 185 Z " /><path fill="rgb(111,82,74)" stroke="rgb(111,82,74)" stroke-width="1" opacity="0.9254901960784314" d="M 113.5 188 L 119 188.5 L 113.5 189 L 113.5 188 Z " /><path fill="rgb(111,82,74)" stroke="rgb(111,82,74)" stroke-width="1" opacity="0.9254901960784314" d="M 177.5 189 L 180 190.5 L 178.5 191 L 177.5 189 Z " /><path fill="rgb(111,82,74)" stroke="rgb(111,82,74)" stroke-width="1" opacity="0.9254901960784314" d="M 298.5 189 L 300 192.5 L 298 191.5 L 298.5 189 Z " /><path fill="rgb(111,82,74)" stroke="rgb(111,82,74)" stroke-width="1" opacity="0.9254901960784314" d="M 401.5 190 Q 404.9 189.1 403 194.5 L 401 198.5 L 402 202.5 L 400 203.5 L 400 201.5 L 400 191.5 L 401.5 190 Z " /><path fill="rgb(111,82,74)" stroke="rgb(111,82,74)" stroke-width="1" opacity="0.9254901960784314" d="M 180.5 192 L 186 200.5 L 191 213.5 L 195 229.5 L 201 244.5 L 218 300.5 L 217 300.5 L 193 226.5 L 191 223.5 L 190 216.5 L 185 205.5 L 185 201.5 L 180 193.5 L 180.5 192 Z " /><path fill="rgb(111,82,74)" stroke="rgb(111,82,74)" stroke-width="1" opacity="0.9254901960784314" d="M 327.5 193 Q 329 200 334 203.5 L 331 201.5 Q 327 198.4 327.5 193 Z " /><path fill="rgb(111,82,74)" stroke="rgb(111,82,74)" stroke-width="1" opacity="0.9254901960784314" d="M 397.5 197 Q 400.3 198.3 399 203.5 L 397 203.5 Q 398.5 211.5 394.5 214 L 389 207.5 L 389 204.5 L 390.5 201 Q 392.2 204.8 394 201.5 L 397.5 197 Z " /><path fill="rgb(111,82,74)" stroke="rgb(111,82,74)" stroke-width="1" opacity="0.9254901960784314" d="M 369.5 202 Q 371.8 204.8 371 210.5 L 372.5 212 L 373 210 L 376 210.5 L 374 217.5 L 377 225 L 374 223.5 Q 368.6 219.4 367 211.5 Q 369.8 209.8 368 203.5 L 369.5 202 Z " /><path fill="rgb(111,82,74)" stroke="rgb(111,82,74)" stroke-width="1" opacity="0.9254901960784314" d="M 334.5 205 L 339 211 Q 341.8 214 349 213.5 L 339.5 216 L 337.5 216 L 334.5 215 L 324.5 228 L 321.5 229 L 321.5 228 L 326 225.5 L 327.5 215 L 329 215.5 Q 328.4 210.4 331.5 209 L 335 207.5 L 334.5 205 Z " /><path fill="rgb(111,82,74)" stroke="rgb(111,82,74)" stroke-width="1" opacity="0.9254901960784314" d="M 386.5 207 Q 389.1 206.2 388 209.5 L 389 212.5 L 388 212.5 L 386.5 207 Z " /><path fill="rgb(111,82,74)" stroke="rgb(111,82,74)" stroke-width="1" opacity="0.9254901960784314" d="M 364.5 219 Q 366.8 220.8 366 225.5 L 364 224.5 L 364.5 219 Z " /><path fill="rgb(111,82,74)" stroke="rgb(111,82,74)" stroke-width="1" opacity="0.9254901960784314" d="M 381.5 223 Q 383.8 222.3 383 224.5 L 381 227.5 L 383.5 228 L 387 227 L 387.5 229 L 389 228.5 L 387 231.5 L 388.5 232 L 390 231.5 L 386.5 237 Q 385.4 234.3 382 235 L 380 239.5 L 381 241.5 L 380 243.5 L 381.5 246 L 379 245 Q 380.1 241.7 376 243 L 377 248.5 Q 375.3 246.9 373.5 250 L 370 248.5 L 372 244.5 L 368.5 244 Q 368 247.5 363.5 247 L 363.5 246 L 370 241.5 Q 367.3 239.8 371.5 238 Q 375.3 236.8 374 240.5 L 375 240.5 Q 381.2 236 379 224 L 381.5 223 Z M 383 229 L 381 231 L 384 232 L 383 229 Z " /><path fill="rgb(111,82,74)" stroke="rgb(111,82,74)" stroke-width="1" opacity="0.9254901960784314" d="M 300.5 225 L 304 225.5 L 301.5 229 L 301 227 L 298 226.5 L 300.5 225 Z " /><path fill="rgb(111,82,74)" stroke="rgb(111,82,74)" stroke-width="1" opacity="0.9254901960784314" d="M 291.5 226 Q 294.8 224.9 294 227.5 L 289 231.5 L 288 233.5 L 289.5 237 L 290.5 235 L 291 236.5 L 287.5 239 L 287 234 Q 283.2 233.3 282 236.5 L 279.5 241 L 279 237.5 L 280 235 Q 282.7 236.1 282 233.5 L 287.5 227 L 291.5 226 Z " /><path fill="rgb(111,82,74)" stroke="rgb(111,82,74)" stroke-width="1" opacity="0.9254901960784314" d="M 363.5 228 L 364 231 Q 360.3 229.5 361 232.5 L 358.5 234 L 359 232.5 L 360.5 230 L 363.5 228 Z " /><path fill="rgb(111,82,74)" stroke="rgb(111,82,74)" stroke-width="1" opacity="0.9254901960784314" d="M 317.5 229 L 319 229.5 L 305.5 235 L 309.5 230 Q 315.8 231.8 317.5 229 Z " /><path fill="rgb(111,82,74)" stroke="rgb(111,82,74)" stroke-width="1" opacity="0.9254901960784314" d="M 362.5 233 L 363 235.5 L 360.5 239 Q 357.8 237.8 360 236.5 L 362.5 233 Z " /><path fill="rgb(111,82,74)" stroke="rgb(111,82,74)" stroke-width="1" opacity="0.9254901960784314" d="M 303.5 235 L 303 236.5 L 301.5 239 L 302 237.5 L 303.5 235 Z " /><path fill="rgb(111,82,74)" stroke="rgb(111,82,74)" stroke-width="1" opacity="0.9254901960784314" d="M 299.5 239 L 295.5 244 L 299.5 239 Z " /><path fill="rgb(111,82,74)" stroke="rgb(111,82,74)" stroke-width="1" opacity="0.9254901960784314" d="M 389.5 240 L 392 244.5 L 389 249 L 385.5 250 L 386 248.5 Q 385.3 246.3 387.5 247 L 390 242.5 L 389.5 240 Z " /><path fill="rgb(111,82,74)" stroke="rgb(111,82,74)" stroke-width="1" opacity="0.9254901960784314" d="M 290.5 246 L 289.5 248 L 290.5 246 Z " /><path fill="rgb(111,82,74)" stroke="rgb(111,82,74)" stroke-width="1" opacity="0.9254901960784314" d="M 286.5 249 L 284.5 252 L 278.5 256 L 279.5 254 L 286.5 249 Z " /><path fill="rgb(111,82,74)" stroke="rgb(111,82,74)" stroke-width="1" opacity="0.9254901960784314" d="M 362.5 250 L 366.5 251 L 369 250 L 370.5 253 L 372.5 252 L 373 256.5 Q 371.3 259.8 365.5 259 L 362.5 258 L 362 260.5 L 362 262 L 358 262 L 359 255.5 L 357 251.5 L 360 252.5 L 360.5 251 L 362.5 252 L 362.5 250 Z " /><path fill="rgb(111,82,74)" stroke="rgb(111,82,74)" stroke-width="1" opacity="0.9254901960784314" d="M 275.5 255 L 276.5 258 L 278 257.5 L 272.5 265 L 272 260.5 L 275.5 255 Z " /><path fill="rgb(111,82,74)" stroke="rgb(111,82,74)" stroke-width="1" opacity="0.9254901960784314" d="M 388.5 257 L 389 262.5 L 388 262.5 L 388.5 257 Z " /><path fill="rgb(111,82,74)" stroke="rgb(111,82,74)" stroke-width="1" opacity="0.9254901960784314" d="M 464.5 259 L 464 260.5 L 462.5 266 L 462 262.5 L 464.5 259 Z " /><path fill="rgb(111,82,74)" stroke="rgb(111,82,74)" stroke-width="1" opacity="0.9254901960784314" d="M 306.5 277 L 305.5 279 L 306.5 277 Z " /><path fill="rgb(111,82,74)" stroke="rgb(111,82,74)" stroke-width="1" opacity="0.9254901960784314" d="M 456 283 L 458 283.5 L 456.5 286 L 456 283 Z " /><path fill="rgb(111,82,74)" stroke="rgb(111,82,74)" stroke-width="1" opacity="0.9254901960784314" d="M 218.5 302 L 221 303.5 L 220 306.5 L 224 318.5 L 223 318.5 L 218.5 302 Z " /><path fill="rgb(111,82,74)" stroke="rgb(111,82,74)" stroke-width="1" opacity="0.9254901960784314" d="M 241.5 306 L 242 309.5 L 236.5 322 L 236 319.5 L 240 310 Q 236.2 309.3 235 312.5 L 226.5 327 L 224 320.5 L 225 320.5 L 226.5 324 L 237.5 308 L 241.5 306 Z " /><path fill="rgb(111,82,74)" stroke="rgb(111,82,74)" stroke-width="1" opacity="0.9254901960784314" d="M 259.5 307 L 266 309.5 L 265 317.5 L 266 319.5 L 263 325.5 L 266 331 L 274.5 328 L 277.5 330 L 280 329 L 283.5 322 L 284 323.5 L 283 324.5 L 283 335.5 L 284 336.5 L 280.5 340 L 273.5 339 L 274.5 341 L 287 344.5 L 283.5 346 L 274.5 345 L 274.5 346 L 280.5 346 L 302.5 350 L 322.5 351 Q 324 353.5 329.5 352 L 332.5 354 L 337.5 353 L 338.5 354 L 357.5 355 L 362 356 L 360 360.5 L 361 365 L 352 368 L 351.5 370 L 349.5 370 L 347.5 371 L 345.5 371 L 343 371.5 L 345 372.5 L 338 373 Q 339.3 376.3 334.5 375 L 334.5 377 L 331.5 376 L 329 377.5 Q 329.8 380.1 326.5 379 L 321 380 L 320 382.5 L 324 383.5 L 319.5 384 L 318 383.5 L 319 386.5 L 314.5 388 L 311.5 387 L 311.5 388 L 316 389.5 L 313.5 390 Q 311.8 387.2 306.5 388 L 306.5 389 L 332.5 395 L 336.5 395 L 340.5 394 L 346.5 396 L 352.5 396 L 354.5 395 L 355.5 396 L 363.5 396 L 364.5 395 L 378.5 395 L 379.5 396 L 382.5 393 L 384.5 393 L 386 393.5 L 385.5 395 L 392.5 397 L 394.5 397 L 397.5 396 L 399.5 397 L 401.5 397 L 409 396 L 410.5 393 Q 412.8 393.8 412 391.5 L 413 389 Q 415.7 390.1 415 387.5 L 416 385 L 419 383.5 L 423 375.5 Q 420.5 374 424 372.5 L 425 369 Q 428 370.3 427 366.5 L 429 361 Q 431.7 362.1 431 359.5 Q 435.7 355.2 436 346.5 L 439 343.5 L 438 340.5 L 440 340.5 L 440 337.5 L 444 331.5 Q 445 321.5 449.5 315 L 450 316.5 L 435 357.5 L 422 381.5 L 422 391.5 L 416 400.5 L 416 404.5 L 417 408 L 409 407.5 L 413 397.5 L 412 397.5 L 410.5 400 Q 408.3 399.3 409 401.5 L 408 404 L 403.5 406 L 389.5 406 L 388.5 405 L 342.5 404 L 331.5 401 L 319 400 L 320 397.5 Q 318.6 394.8 314 396 L 315 398.5 L 313 399 Q 314.7 394.9 310.5 396 L 306 393.5 Q 306.6 390.8 300.5 392 L 296.5 390 L 294.5 390 L 287.5 389 L 286 387.5 Q 286.8 385.3 284.5 386 L 282.5 387 L 281.5 385 L 283 384.5 L 282.5 383 L 287.5 384 L 287.5 382 L 290.5 383 L 292 380 L 296 379.5 L 295.5 378 L 298 379 L 298.5 377 L 299.5 379 L 306 377.5 L 305.5 376 L 314.5 375 L 316.5 373 L 321.5 372 L 330 371.5 L 329.5 370 L 333.5 369 L 335.5 369 L 343.5 369 L 345.5 367 L 352.5 365 L 357.5 365 L 359 363.5 L 358.5 361 L 348.5 361 L 347.5 360 L 330.5 359 L 329.5 358 L 303.5 355 L 297.5 353 L 286.5 353 Q 281.9 350.1 274 350.5 L 275 348 Q 268.7 346.5 269.5 350 L 262.5 350 L 256.5 348 L 254.5 348 L 237 347 L 240 341 L 233 341 L 233 345 L 235 345.5 L 231 346 L 232 342.5 L 230 339 L 263.5 343 L 263.5 342 L 262 341.5 L 265 339.5 L 244.5 333 L 242.5 334 L 239.5 332 L 232 330.5 L 234 330 Q 232.8 325.4 235.5 324 L 235 325.5 Q 233.9 328.8 236.5 328 L 238.5 328 L 245 322.5 L 252.5 311 L 259.5 307 Z M 250 320 L 251 323 L 249 323 L 248 325 Q 250 324 249 327 L 246 324 L 243 325 L 242 328 Q 243 330 240 329 L 240 331 L 243 330 Q 249 328 247 333 L 257 334 L 262 336 L 266 335 L 279 335 L 281 336 L 282 334 L 282 332 L 279 334 L 271 332 L 268 333 L 266 332 L 261 327 L 260 328 L 254 327 L 252 326 L 259 324 Q 263 325 262 322 L 250 320 Z M 266 340 L 266 341 L 269 341 L 266 340 Z M 242 341 L 242 342 L 244 342 L 242 341 Z M 259 343 L 259 345 L 261 344 L 259 343 Z M 271 343 L 270 344 L 262 344 L 262 345 Q 270 347 273 344 L 271 343 Z M 248 344 L 249 345 L 249 347 Q 252 348 251 346 L 248 344 Z M 244 345 L 244 346 L 247 346 L 244 345 Z M 318 355 L 318 356 L 320 356 L 318 355 Z M 318 381 L 318 382 L 320 382 L 318 381 Z M 315 386 L 315 387 L 317 387 L 315 386 Z M 387 396 L 387 397 L 389 397 L 387 396 Z M 322 397 L 321 399 L 324 398 L 322 397 Z " /><path fill="rgb(111,82,74)" stroke="rgb(111,82,74)" stroke-width="1" opacity="0.9254901960784314" d="M 450.5 310 L 451 312.5 L 450 312.5 L 450.5 310 Z " /><path fill="rgb(111,82,74)" stroke="rgb(111,82,74)" stroke-width="1" opacity="0.9254901960784314" d="M 154 315 Q 160.3 313.5 162 317.5 L 165 321.5 L 165 324 L 170 325 L 178 340 L 170 339 Q 171.5 335.3 168.5 336 L 162 329.5 L 154 317.5 L 154 315 Z " /><path fill="rgb(111,82,74)" stroke="rgb(111,82,74)" stroke-width="1" opacity="0.9254901960784314" d="M 149.5 325 L 155 326 L 155 328 Q 157.7 326.9 157 329.5 Q 155.8 332.3 154.5 330 L 148 329 L 149.5 325 Z " /><path fill="rgb(111,82,74)" stroke="rgb(111,82,74)" stroke-width="1" opacity="0.9254901960784314" d="M 195.5 341 L 197 345 Q 192.9 346.7 194 342.5 L 195.5 341 Z " /><path fill="rgb(111,82,74)" stroke="rgb(111,82,74)" stroke-width="1" opacity="0.9254901960784314" d="M 322.5 381 L 325 381.5 L 322.5 382 L 322.5 381 Z " /><path fill="rgb(111,82,74)" stroke="rgb(111,82,74)" stroke-width="1" opacity="0.9254901960784314" d="M 302.5 393 Q 306.3 391.8 305 395.5 L 303.5 395 L 300.5 396 L 299.5 394 L 302.5 393 Z " /><path fill="rgb(111,82,74)" stroke="rgb(111,82,74)" stroke-width="1" opacity="0.9254901960784314" d="M 316 398 Q 319 397 318 400 Q 315 401 316 398 Z " /><path fill="rgb(235,229,228)" stroke="rgb(235,229,228)" stroke-width="1" opacity="0.996078431372549" d="M 360.5 46 L 362.5 47 L 365.5 46 Q 368.1 45.2 367 48.5 L 378 62.5 L 379 67.5 L 377 71.5 L 380 77.5 Q 379.3 79.8 375.5 79 L 374.5 78 L 360.5 78 Q 359.3 75.7 354.5 77 L 353 75.5 L 352 72.5 L 354.5 68 L 356.5 69 Q 359.8 67.3 356 65.5 L 353.5 62 L 350 63 L 350 57.5 L 357.5 47 L 360.5 46 Z " /><path fill="rgb(235,229,228)" stroke="rgb(235,229,228)" stroke-width="1" opacity="0.996078431372549" d="M 349 95 L 352 96.5 Q 350.3 101.3 354.5 100 L 356.5 99 L 360.5 100 L 366 104 Q 367.5 107.8 364.5 107 L 363.5 108 L 355.5 108 L 352.5 107 L 350 107.5 L 349 114 L 344 115 Q 344.2 106.5 348 100.5 Q 345.5 99 349 97.5 L 349 95 Z " /><path fill="rgb(235,229,228)" stroke="rgb(235,229,228)" stroke-width="1" opacity="0.996078431372549" d="M 384.5 96 Q 386.8 97.8 386 102.5 L 385 105 L 376.5 108 L 373 106.5 L 376.5 102 L 379.5 100 L 384.5 96 Z " /><path fill="rgb(235,229,228)" stroke="rgb(235,229,228)" stroke-width="1" opacity="0.996078431372549" d="M 339.5 156 L 343 157 L 342 159.5 L 345 161.5 Q 344.3 163.8 346.5 163 L 349 168 L 354.5 171 L 375.5 157 L 374 159.5 L 368 170.5 L 368 180.5 L 369 182.5 L 368 187.5 L 366.5 190 L 365 186.5 L 365.5 185 Q 363.3 184.3 364 186.5 L 364 188.5 L 365 191.5 L 362.5 194 L 360.5 194 L 357 193 L 357 190 Q 354.3 191.1 355 188.5 L 354 188.5 L 355 192.5 L 354 194.5 L 356 194.5 L 357 198.5 L 354 196.5 L 350.5 192 L 347.5 193 L 344.5 189 Q 341.1 188.1 343 193.5 L 343.5 195 Q 342.1 191.8 337 193 L 336.5 191 L 335 193.5 L 336.5 196 L 334 194.5 L 333.5 193 L 331 193.5 L 330.5 195 Q 326.3 189.7 328 178.5 L 331 168.5 L 336 158 L 339.5 156 Z M 363 183 Q 361 186 364 185 L 363 183 Z " /><path fill="rgb(235,229,228)" stroke="rgb(235,229,228)" stroke-width="1" opacity="0.996078431372549" d="M 372.5 174 L 373.5 176 L 372.5 174 Z " /><path fill="rgb(235,229,228)" stroke="rgb(235,229,228)" stroke-width="1" opacity="0.996078431372549" d="M 434.5 179 Q 443.8 178.2 447.5 183 Q 449 180.5 450.5 184 L 455 185 L 462 200.5 L 462 204.5 L 463 206.5 L 462 209 Q 464.7 207.9 464 210.5 L 462 213.5 L 466 214 L 465.5 216 L 464 215.5 L 465 227.5 L 464 229.5 L 465 232.5 L 464 236.5 L 464 238.5 L 464 242.5 Q 461 241.5 462 246.5 L 460 248.5 L 460 252.5 Q 457.3 253.6 458 257 L 455 257.5 Q 459.5 260 454 262.5 L 456 266.5 L 454.5 267 L 452.5 266 L 453.5 269 L 451 269.5 L 454 271.5 L 452.5 271 L 450 271.5 L 452 272 L 450 278.5 L 450.5 280 L 449 280.5 Q 451.3 281.8 448.5 283 L 447 283.5 L 448 285.5 L 447 288 L 445 288.5 L 448 289 Q 446.9 286.3 449.5 287 L 450.5 289 Q 449 286.5 447.5 290 L 445 290.5 L 446 292.5 L 444 292.5 L 444 294 Q 447.7 292.5 447 295.5 L 445.5 295 Q 442.2 293.9 443 296.5 L 442 299.5 L 443.5 302 L 445 302.5 L 442 303 L 441 305.5 L 444 307.5 L 442.5 307 L 441 307.5 L 441.5 309 Q 439.3 308.3 440 310.5 L 440.5 312 L 438.5 311 L 439 312.5 L 436 319.5 L 436.5 321 L 434.5 320 L 435.5 323 Q 433.3 322.3 434 324.5 L 434.5 326 L 433 326.5 L 434 327.5 Q 430.9 329.3 432.5 331 L 431 330.5 Q 430.3 332.8 432.5 332 L 432.5 333 L 429.5 332 L 430.5 337 L 427 337.5 L 430 338.5 L 427 342.5 L 428 344.5 L 424 353 L 420 354.5 L 421 356.5 L 415 359.5 L 417.5 360 L 422.5 358 L 422.5 360 L 424 360.5 L 422.5 361 L 419.5 360 Q 416.7 361.2 419 362.5 L 420 364.5 L 418.5 364 L 413.5 368 L 414 366.5 L 413.5 364 L 407 371.5 Q 410.8 373.3 407.5 375 L 406 374.5 L 407 376.5 L 404 378.5 L 403.5 377 L 402 380 L 398.5 381 L 399 379.5 L 400 377.5 L 398 373.5 L 399 371.5 L 397.5 371 L 394 373.5 L 396 370.5 L 393.5 369 L 391 373.5 L 392 375.5 L 389 377.5 L 391 378.5 L 388.5 380 L 388.5 378 L 386 379.5 L 386.5 381 L 383 379.5 L 385 378.5 L 382.5 378 L 381 378.5 L 385 375.5 L 383.5 375 Q 377.5 379 368.5 380 L 368.5 379 L 374 377.5 L 371.5 377 L 359 379 L 358.5 381 L 352 379.5 L 356.5 378 L 358.5 378 L 372 375.5 L 367.5 375 L 364.5 376 L 353.5 377 L 353.5 376 L 356 376 Q 354.9 373.3 357.5 374 L 359 374.5 L 359.5 373 L 361.5 373 L 363 372.5 L 357 371.5 L 360 371 Q 358.9 368.3 361.5 369 L 366 367.5 L 363 366.5 L 363.5 364 Q 365.8 364.8 365 362.5 Q 362 360.3 363 355 Q 351.4 354.8 342.5 351 L 340.5 351 Q 335.8 349.8 334.5 352 L 331.5 350 L 329.5 351 L 325 348.5 L 328 347.5 L 323.5 345 L 319.5 345 Q 314.8 341.2 306.5 341 L 305 339.5 L 304.5 338 L 304 340 L 300.5 338 L 297.5 338 Q 296 340.5 294.5 337 L 292 337 L 292 331.5 L 290.5 328 L 290 333.5 L 291 335.5 L 290 335.5 Q 287.7 332.3 289 325.5 L 290 321.5 L 289 320.5 L 288.5 311 L 283.5 317 L 283 315 Q 286 316.3 285 312.5 L 284 307.5 L 281 302 L 272.5 298 L 264 297 Q 262.9 294.3 265.5 295 L 267.5 295 L 269.5 294 L 274 295 Q 272.8 298 276.5 297 L 282 299 L 279.5 289 L 278 289.5 Q 281.5 288 279 286.5 Q 278.2 280.3 274 277.5 L 273 270.5 L 276 266.5 L 274 266 L 280 255 Q 288 251.7 293.5 245 L 298 244 L 299.5 241 L 306.5 236 L 308.5 237 L 315.5 233 L 320.5 233 L 322.5 234 L 325.5 230 L 333 225 Q 331.7 221.7 336.5 223 L 341.5 220 L 341 221.5 Q 340 225.3 343 224 L 343 220.5 L 346.5 216 L 352 214 L 337 241 Q 334 239.8 335 243.5 L 333 247 L 331 247 L 331 249 Q 328.3 247.9 329 250.5 L 319.5 261 L 312.5 266 L 310.5 266 L 308 266.5 L 310 267.5 L 304.5 271 Q 303.3 268.8 302 271.5 L 301 274.5 L 302 277 L 304 277.5 L 302 278 Q 303.9 280.7 303 287.5 L 305 290.5 L 303 291 Q 301.9 294.3 306 293 Q 304.9 290.3 307.5 291 L 307.5 289 L 309.5 293 Q 309.3 288.8 312 287.5 L 310 286.5 L 312 286 Q 310.5 280.6 313.5 279 L 315 278.5 L 315 276.5 L 317 271 L 319 270.5 L 318.5 269 L 330 261.5 L 328 260.5 L 332 260 L 327 277.5 L 329 286 L 331 286.5 L 329 287 L 329.5 289 L 331 288.5 L 332.5 292 L 334 291.5 L 333 294 L 336.5 293 L 339 293.5 L 338.5 295 L 342 293.5 L 342.5 292 L 345.5 293 L 345 291.5 Q 344.3 289.3 346.5 290 L 348 290.5 L 348.5 289 L 350.5 292 Q 351.8 289.8 353 292.5 L 351 293.5 L 353.5 295 L 354.5 293 L 355 297 L 358.5 296 L 358 299.5 L 357 302.5 L 358.5 302 Q 362.3 300.8 361 304.5 L 362 304.5 L 363 298 L 366.5 297 L 367.5 301 L 369 297.5 L 368 295.5 L 368.5 293 L 373 291.5 L 369.5 291 L 368 291.5 Q 367.1 288.1 372.5 290 L 372.5 289 L 370 288.5 L 373.5 286 L 374.5 288 L 375.5 286 L 376.5 291 L 380 288.5 L 380.5 286 L 381.5 291 L 382.5 288 L 385 289 L 385.5 296 L 387 294.5 L 390 282.5 L 394 275.5 L 397 264.5 L 399 262.5 L 402 246.5 L 401 243.5 L 404 237.5 L 404 234.5 L 403 234.5 L 402.5 236 L 400 234.5 L 402 233.5 Q 398.5 232 400 225.5 L 404 220.5 L 405 214.5 L 409 207.5 L 407.5 205 Q 409.8 205.8 409 203.5 L 420 191.5 L 420 189 L 423 187.5 L 422 185.5 L 424 185 Q 422.9 182.3 425.5 183 L 430.5 180 L 432.5 180 L 434.5 179 Z M 414 221 L 412 223 L 414 223 L 414 221 Z M 407 225 L 407 228 L 409 227 Q 410 224 407 225 Z M 405 230 L 404 233 L 405 233 L 405 230 Z M 278 265 Q 278 269 280 266 L 278 265 Z M 295 268 L 294 273 L 297 275 Q 298 269 295 268 Z M 314 280 Q 312 283 315 282 L 314 280 Z M 316 291 Q 314 294 317 293 L 316 291 Z M 307 293 L 307 296 L 308 296 Q 309 292 307 293 Z M 373 293 Q 371 296 374 295 L 373 293 Z M 295 296 L 298 303 L 301 305 L 301 302 L 298 298 L 295 296 Z M 305 296 Q 303 299 306 298 L 305 296 Z M 370 296 L 370 298 L 372 297 L 370 296 Z M 372 297 Q 371 300 374 299 Q 375 296 372 297 Z M 303 299 Q 302 302 305 301 L 304 303 L 305 305 L 306 305 Q 308 297 303 299 Z M 365 299 L 365 301 L 363 302 L 365 302 L 364 304 L 365 306 L 366 304 Q 368 298 365 299 Z M 284 300 Q 282 305 286 308 Q 285 311 288 310 L 288 308 L 284 300 Z M 371 301 L 372 302 L 373 303 Q 374 300 371 301 Z M 385 301 L 384 305 L 385 305 L 385 301 Z M 368 302 L 367 305 L 368 305 L 368 302 Z M 307 306 Q 305 309 308 308 L 307 306 Z M 372 306 L 373 308 Q 374 305 372 306 Z M 409 307 L 409 308 L 411 308 L 409 307 Z M 292 309 L 293 312 Q 291 316 295 315 L 296 316 L 294 311 Q 295 308 292 309 Z M 371 310 L 373 313 L 373 312 L 371 310 Z M 378 311 L 379 313 L 381 312 L 378 311 Z M 300 313 L 300 315 L 302 316 Q 303 312 300 313 Z M 316 314 L 315 317 L 317 317 L 318 318 Q 319 313 316 314 Z M 381 320 L 380 327 L 381 327 L 381 320 Z M 292 324 L 291 328 L 292 328 L 292 324 Z M 303 327 L 302 329 L 304 330 L 303 327 Z M 304 332 L 303 338 L 304 338 L 304 332 Z M 368 335 L 366 338 L 368 338 L 368 335 Z M 389 339 Q 389 342 387 341 L 387 342 L 390 342 L 389 339 Z M 374 344 L 374 346 L 378 348 Q 380 349 379 347 L 374 344 Z M 393 344 L 393 346 L 395 345 L 393 344 Z M 398 349 L 398 350 L 400 350 L 398 349 Z M 382 350 L 382 352 Q 381 354 384 353 L 383 352 Q 384 349 382 350 Z M 417 352 L 417 353 L 419 353 L 417 352 Z M 386 355 L 385 357 L 387 358 L 386 355 Z M 408 356 L 406 358 L 408 358 L 408 356 Z M 403 358 L 403 359 L 405 359 L 403 358 Z M 393 366 Q 391 369 394 368 Q 395 370 396 368 L 393 366 Z M 390 368 Q 389 371 392 370 Q 393 367 390 368 Z M 367 371 L 367 372 L 369 372 L 367 371 Z M 382 371 L 377 375 Q 378 377 375 376 L 375 377 L 380 376 L 379 375 L 384 372 L 382 371 Z M 390 372 L 388 374 L 390 374 L 390 372 Z " /><path fill="rgb(235,229,228)" stroke="rgb(235,229,228)" stroke-width="1" opacity="0.996078431372549" d="M 181.5 191 L 186 195.5 L 184.5 197 L 181 192.5 L 181.5 191 Z " /><path fill="rgb(235,229,228)" stroke="rgb(235,229,228)" stroke-width="1" opacity="0.996078431372549" d="M 460.5 269 L 461 272 Q 458.3 273.1 459 270.5 L 460.5 269 Z " /><path fill="rgb(235,229,228)" stroke="rgb(235,229,228)" stroke-width="1" opacity="0.996078431372549" d="M 377.5 278 L 376.5 280 L 377.5 278 Z " /><path fill="rgb(235,229,228)" stroke="rgb(235,229,228)" stroke-width="1" opacity="0.996078431372549" d="M 454.5 280 L 455 282 L 453 281.5 L 454.5 280 Z " /><path fill="rgb(235,229,228)" stroke="rgb(235,229,228)" stroke-width="1" opacity="0.996078431372549" d="M 374 281 L 376 281.5 L 374.5 285 L 374 282.5 L 374 281 Z " /><path fill="rgb(235,229,228)" stroke="rgb(235,229,228)" stroke-width="1" opacity="0.996078431372549" d="M 305.5 284 L 308 285.5 L 306.5 286 L 305.5 284 Z " /><path fill="rgb(235,229,228)" stroke="rgb(235,229,228)" stroke-width="1" opacity="0.996078431372549" d="M 350.5 288 L 351.5 290 L 350.5 288 Z " /><path fill="rgb(235,229,228)" stroke="rgb(235,229,228)" stroke-width="1" opacity="0.996078431372549" d="M 360.5 291 L 359.5 293 L 360.5 291 Z " /><path fill="rgb(235,229,228)" stroke="rgb(235,229,228)" stroke-width="1" opacity="0.996078431372549" d="M 276.5 292 L 278 294.5 L 277 294.5 L 276.5 292 Z " /><path fill="rgb(235,229,228)" stroke="rgb(235,229,228)" stroke-width="1" opacity="0.996078431372549" d="M 447.5 292 Q 449.8 291.3 449 293.5 L 447.5 292 Z " /><path fill="rgb(235,229,228)" stroke="rgb(235,229,228)" stroke-width="1" opacity="0.996078431372549" d="M 420.5 361 L 422.5 364 L 420 362.5 L 420.5 361 Z " /><path fill="rgb(235,229,228)" stroke="rgb(235,229,228)" stroke-width="1" opacity="0.996078431372549" d="M 397.5 375 L 396.5 377 L 397.5 375 Z " /><path fill="rgb(235,229,228)" stroke="rgb(235,229,228)" stroke-width="1" opacity="0.996078431372549" d="M 349.5 377 L 352 377.5 L 349.5 378 L 349.5 377 Z " /><path fill="rgb(235,229,228)" stroke="rgb(235,229,228)" stroke-width="1" opacity="0.996078431372549" d="M 351.5 381 L 354 381.5 L 351.5 382 L 351.5 381 Z " /><path fill="rgb(235,229,228)" stroke="rgb(235,229,228)" stroke-width="1" opacity="0.996078431372549" d="M 377.5 381 L 376.5 383 L 377.5 381 Z " /><path fill="rgb(235,229,228)" stroke="rgb(235,229,228)" stroke-width="1" opacity="0.996078431372549" d="M 392.5 381 L 390.5 384 L 389 384.5 L 391.5 385 L 395 382.5 L 392.5 386 Q 387.1 387.9 388 384.5 L 388.5 382 L 390.5 383 L 392.5 381 Z " /><path fill="rgb(235,229,228)" stroke="rgb(235,229,228)" stroke-width="1" opacity="0.996078431372549" d="M 369.5 383 L 373 383.5 L 369.5 384 L 369.5 383 Z " /><path fill="rgb(235,229,228)" stroke="rgb(235,229,228)" stroke-width="1" opacity="0.996078431372549" d="M 386.5 386 L 387 388 L 384 387.5 L 386.5 386 Z " /></svg>