<svg width="500" height="500" version="1.1" xmlns="http://www.w3.org/2000/svg" desc="Created with imagetracer.js version 1.2.6" ><path fill="rgb(0,0,0)" stroke="rgb(0,0,0)" stroke-width="1" opacity="0.8509803921568627" d="M 144.5 205 Q 150.5 203.5 152 206.5 L 165 236.5 L 157.5 237 L 155 232 L 142.5 232 L 141 233.5 L 140 238 L 132.5 238 L 132 236.5 L 144.5 205 Z M 148 215 L 144 224 L 144 226 L 152 226 L 148 215 Z " /><path fill="rgb(0,0,0)" stroke="rgb(0,0,0)" stroke-width="1" opacity="0.8509803921568627" d="M 181 206 L 195.5 208 Q 201.3 209.3 204 213.5 L 205 222.5 L 200.5 229 L 198 230.5 L 202 242 Q 196 242.9 193 239.5 L 190 230 L 185.5 229 L 183 239 Q 177.6 240.5 176 237.5 L 180 214.5 L 180 208.5 L 181 206 Z M 188 213 L 186 223 Q 188 225 195 224 L 198 220 L 197 217 L 194 214 Q 189 215 188 213 Z " /><path fill="rgb(0,0,0)" stroke="rgb(0,0,0)" stroke-width="1" opacity="0.8509803921568627" d="M 281 206 L 403.5 206 L 404 206.5 L 404 219 L 281.5 219 L 281 218.5 L 281 206 Z " /><path fill="rgb(0,0,0)" stroke="rgb(0,0,0)" stroke-width="1" opacity="0.8509803921568627" d="M 111.5 208 Q 116.3 206.3 115 210.5 L 116 214 L 103 216 L 103 223 L 106.5 223 L 115.5 221 Q 118.3 222.4 117 227 L 105 229 L 106 236 L 121 234 L 122 240 L 100 244 L 94 212 L 111.5 208 Z " /><path fill="rgb(0,0,0)" stroke="rgb(0,0,0)" stroke-width="1" opacity="0.8509803921568627" d="M 226.5 215 L 232 217.5 L 238.5 240 L 245 222 L 252 224.5 L 242 254 Q 237 254.8 235 251.5 L 228.5 230 L 221.5 248 L 215 246 L 224 218.5 L 226.5 215 Z " /><path fill="rgb(0,0,0)" stroke="rgb(0,0,0)" stroke-width="1" opacity="0.8509803921568627" d="M 61.5 222 Q 64.8 220.9 64 223.5 L 72 245 L 75.5 245 L 85.5 241 L 88 248 L 68.5 255 L 57 224 L 61.5 222 Z " /><path fill="rgb(0,0,0)" stroke="rgb(0,0,0)" stroke-width="1" opacity="0.8509803921568627" d="M 266 242 L 286 248.5 L 284 254 L 271 251 L 269 259 L 278.5 261 L 280 262.5 L 277.5 268 L 267.5 265 L 264 275 L 257 272.5 L 266 242 Z " /><path fill="rgb(0,0,0)" stroke="rgb(0,0,0)" stroke-width="1" opacity="0.8509803921568627" d="M 419.5 242 L 422 242.5 L 422 251.5 L 421 252.5 L 421 268.5 L 420 269.5 L 420 276 L 413.5 278 L 400.5 260 L 399 282 L 391.5 283 L 376 259.5 L 374 254 L 380.5 253 L 392.5 270 L 394 249 L 400.5 247 L 412.5 264 L 414 263.5 L 414 244.5 L 419.5 242 Z " /><path fill="rgb(0,0,0)" stroke="rgb(0,0,0)" stroke-width="1" opacity="0.8509803921568627" d="M 299.5 251 L 306 252 L 302 278 L 314.5 279 L 316 280.5 L 315 286 L 295.5 284 L 294 282.5 L 298 252.5 L 299.5 251 Z " /><path fill="rgb(0,0,0)" stroke="rgb(0,0,0)" stroke-width="1" opacity="0.8509803921568627" d="M 347.5 254 L 356.5 256 L 361 259.5 L 365 266.5 L 365 275.5 Q 363.2 282.7 357.5 286 Q 352.4 289.4 342.5 288 L 333 281.5 L 331 277.5 L 330 270.5 L 333 261.5 L 337.5 257 L 347.5 254 Z M 348 261 L 342 263 L 338 269 L 339 277 L 345 281 L 354 280 L 358 273 L 357 267 Q 355 261 348 261 Z " /><path fill="rgb(0,0,0)" stroke="rgb(0,0,0)" stroke-width="1" opacity="0.8509803921568627" d="M 93 286 L 215.5 286 L 217 287.5 L 216 288.5 L 216 300 L 93.5 300 L 93 299.5 L 93 286 Z " /><path fill="rgb(0,0,0)" stroke="rgb(0,0,0)" stroke-width="1" opacity="0" d="M 0 0 L 500 0 L 500 500 L 0 500 L 0 0 Z M 145 205 L 132 237 L 133 238 L 140 238 L 141 234 L 143 232 L 155 232 L 158 237 L 165 237 L 152 207 Q 150 203 145 205 Z M 181 206 L 180 209 L 180 215 L 176 238 Q 178 240 183 239 L 186 229 L 190 230 L 193 240 Q 196 243 202 242 L 198 231 L 201 229 L 205 223 L 204 214 Q 201 209 196 208 L 181 206 Z M 281 206 L 281 219 L 282 219 L 404 219 L 404 207 L 404 206 L 281 206 Z M 112 208 L 94 212 L 100 244 L 122 240 L 121 234 L 106 236 L 105 229 L 117 227 Q 118 222 116 221 L 107 223 L 103 223 L 103 216 L 116 214 L 115 211 Q 116 206 112 208 Z M 227 215 L 224 219 L 215 246 L 222 248 L 229 230 L 235 252 Q 237 255 242 254 L 252 225 L 245 222 L 239 240 L 232 218 L 227 215 Z M 62 222 L 57 224 L 69 255 L 88 248 L 86 241 L 76 245 L 72 245 L 64 224 Q 65 221 62 222 Z M 266 242 L 257 273 L 264 275 L 268 265 L 278 268 L 280 263 L 279 261 L 269 259 L 271 251 L 284 254 L 286 249 L 266 242 Z M 420 242 L 414 245 L 414 264 L 413 264 L 401 247 L 394 249 L 393 270 L 381 253 L 374 254 L 376 260 L 392 283 L 399 282 L 401 260 L 414 278 L 420 276 L 420 270 L 421 269 L 421 253 L 422 252 L 422 243 L 420 242 Z M 300 251 L 298 253 L 294 283 L 296 284 L 315 286 L 316 281 L 315 279 L 302 278 L 306 252 L 300 251 Z M 348 254 L 338 257 L 333 262 L 330 271 L 331 278 L 333 282 L 343 288 Q 352 289 358 286 Q 363 283 365 276 L 365 267 L 361 260 L 357 256 L 348 254 Z M 93 286 L 93 300 L 94 300 L 216 300 L 216 289 L 217 288 L 216 286 L 93 286 Z " /><path fill="rgb(0,0,0)" stroke="rgb(0,0,0)" stroke-width="1" opacity="0" d="M 187.5 213 Q 188.7 215.3 193.5 214 L 197 216.5 L 198 219.5 L 194.5 224 Q 188.4 224.8 186 223 L 187.5 213 Z " /><path fill="rgb(0,0,0)" stroke="rgb(0,0,0)" stroke-width="1" opacity="0" d="M 147.5 215 L 152 226 L 144 226 L 144 223.5 L 147.5 215 Z " /><path fill="rgb(0,0,0)" stroke="rgb(0,0,0)" stroke-width="1" opacity="0" d="M 347.5 261 Q 354.8 261.3 357 266.5 L 358 272.5 L 353.5 280 L 344.5 281 L 339 276.5 L 338 268.5 L 341.5 263 L 347.5 261 Z " /></svg>